<?xml version="1.0" encoding="UTF-8" standalone="no"?>
<!DOCTYPE svg PUBLIC "-//W3C//DTD SVG 1.1//EN"
 "http://www.w3.org/Graphics/SVG/1.1/DTD/svg11.dtd">
<!-- Generated by graphviz version 14.1.1 (20251213.1925)
 -->
<!-- Title: G Pages: 1 -->
<svg width="1311pt" height="1092pt"
 viewBox="0.00 0.00 1311.00 1092.00" xmlns="http://www.w3.org/2000/svg" xmlns:xlink="http://www.w3.org/1999/xlink">
<g id="graph0" class="graph" transform="scale(1 1) rotate(0) translate(4 1088.04)">
<title>G</title><style>.edge>path:hover{stroke-width:8}</style>
<polygon fill="white" stroke="none" points="-4,4 -4,-1088.04 1307.16,-1088.04 1307.16,4 -4,4"/>
<!-- lb_app -->
<g id="node1" class="node">
<title>lb_app</title><style>.edge>path:hover{stroke-width:8}</style>
<ellipse fill="#f91010" stroke="black" cx="442.38" cy="-850.04" rx="27" ry="18"/>
<text xml:space="preserve" text-anchor="middle" x="442.38" y="-846.16" font-family="Helvetica,sans-Serif" font-size="10.00" fill="#ffffff">lb_app</text>
</g>
<!-- lb_ui_cli_commands_config -->
<g id="node9" class="node">
<title>lb_ui_cli_commands_config</title><style>.edge>path:hover{stroke-width:8}</style>
<ellipse fill="#309191" stroke="black" cx="423.38" cy="-348.52" rx="47.38" ry="37.48"/>
<text xml:space="preserve" text-anchor="middle" x="423.38" y="-361.52" font-family="Helvetica,sans-Serif" font-size="10.00" fill="#ffffff">lb_ui.</text>
<text xml:space="preserve" text-anchor="middle" x="423.38" y="-350.27" font-family="Helvetica,sans-Serif" font-size="10.00" fill="#ffffff">cli.</text>
<text xml:space="preserve" text-anchor="middle" x="423.38" y="-339.02" font-family="Helvetica,sans-Serif" font-size="10.00" fill="#ffffff">commands.</text>
<text xml:space="preserve" text-anchor="middle" x="423.38" y="-327.77" font-family="Helvetica,sans-Serif" font-size="10.00" fill="#ffffff">config</text>
</g>
<!-- lb_app&#45;&gt;lb_ui_cli_commands_config -->
<g id="edge1" class="edge">
<title>lb_app&#45;&gt;lb_ui_cli_commands_config</title><style>.edge>path:hover{stroke-width:8}</style>
<path fill="none" stroke="black" d="M854.38,-656.52C734.29,-530.35 685.02,-519.04 540.38,-422 514.55,-404.67 506.81,-402.38 480.38,-386 476.82,-383.79 473.15,-381.5 469.47,-379.18"/>
<polygon fill="#f91010" stroke="black" points="471.37,-376.23 461.04,-373.84 467.62,-382.15 471.37,-376.23"/>
<path fill="none" stroke="black" d="M1050.38,-795.04C1079.96,-760.37 1016.09,-747.08 977.38,-723.04 935.83,-697.23 912.07,-716.96 873.38,-687.04 861.33,-677.72 865.73,-668.67 854.38,-658.52"/>
</g>
<!-- lb_ui_cli_commands_plugin -->
<g id="node11" class="node">
<title>lb_ui_cli_commands_plugin</title><style>.edge>path:hover{stroke-width:8}</style>
<ellipse fill="#28a3a3" stroke="black" cx="160.38" cy="-348.52" rx="47.38" ry="37.48"/>
<text xml:space="preserve" text-anchor="middle" x="160.38" y="-361.52" font-family="Helvetica,sans-Serif" font-size="10.00" fill="#ffffff">lb_ui.</text>
<text xml:space="preserve" text-anchor="middle" x="160.38" y="-350.27" font-family="Helvetica,sans-Serif" font-size="10.00" fill="#ffffff">cli.</text>
<text xml:space="preserve" text-anchor="middle" x="160.38" y="-339.02" font-family="Helvetica,sans-Serif" font-size="10.00" fill="#ffffff">commands.</text>
<text xml:space="preserve" text-anchor="middle" x="160.38" y="-327.77" font-family="Helvetica,sans-Serif" font-size="10.00" fill="#ffffff">plugin</text>
</g>
<!-- lb_app&#45;&gt;lb_ui_cli_commands_plugin -->
<g id="edge2" class="edge">
<title>lb_app&#45;&gt;lb_ui_cli_commands_plugin</title><style>.edge>path:hover{stroke-width:8}</style>
<path fill="none" stroke="black" d="M431.77,-833.01C417.12,-811.37 389.31,-772.06 361.38,-742.04"/>
</g>
<!-- lb_ui_cli_commands_run -->
<g id="node12" class="node">
<title>lb_ui_cli_commands_run</title><style>.edge>path:hover{stroke-width:8}</style>
<ellipse fill="#2b8282" stroke="black" cx="649.38" cy="-348.52" rx="47.38" ry="37.48"/>
<text xml:space="preserve" text-anchor="middle" x="649.38" y="-361.52" font-family="Helvetica,sans-Serif" font-size="10.00" fill="#ffffff">lb_ui.</text>
<text xml:space="preserve" text-anchor="middle" x="649.38" y="-350.27" font-family="Helvetica,sans-Serif" font-size="10.00" fill="#ffffff">cli.</text>
<text xml:space="preserve" text-anchor="middle" x="649.38" y="-339.02" font-family="Helvetica,sans-Serif" font-size="10.00" fill="#ffffff">commands.</text>
<text xml:space="preserve" text-anchor="middle" x="649.38" y="-327.77" font-family="Helvetica,sans-Serif" font-size="10.00" fill="#ffffff">run</text>
</g>
<!-- lb_app&#45;&gt;lb_ui_cli_commands_run -->
<g id="edge3" class="edge">
<title>lb_app&#45;&gt;lb_ui_cli_commands_run</title><style>.edge>path:hover{stroke-width:8}</style>
<path fill="none" stroke="black" d="M854.38,-553.52C839.89,-511.03 876.5,-491.57 854.38,-452.52"/>
</g>
<!-- lb_ui_cli_commands_runs -->
<g id="node13" class="node">
<title>lb_ui_cli_commands_runs</title><style>.edge>path:hover{stroke-width:8}</style>
<ellipse fill="#3ab0b0" stroke="black" cx="536.38" cy="-348.52" rx="47.38" ry="37.48"/>
<text xml:space="preserve" text-anchor="middle" x="536.38" y="-361.52" font-family="Helvetica,sans-Serif" font-size="10.00" fill="#000000">lb_ui.</text>
<text xml:space="preserve" text-anchor="middle" x="536.38" y="-350.27" font-family="Helvetica,sans-Serif" font-size="10.00" fill="#000000">cli.</text>
<text xml:space="preserve" text-anchor="middle" x="536.38" y="-339.02" font-family="Helvetica,sans-Serif" font-size="10.00" fill="#000000">commands.</text>
<text xml:space="preserve" text-anchor="middle" x="536.38" y="-327.77" font-family="Helvetica,sans-Serif" font-size="10.00" fill="#000000">runs</text>
</g>
<!-- lb_app&#45;&gt;lb_ui_cli_commands_runs -->
<g id="edge4" class="edge">
<title>lb_app&#45;&gt;lb_ui_cli_commands_runs</title><style>.edge>path:hover{stroke-width:8}</style>
<path fill="none" stroke="black" d="M854.38,-553.52C854.33,-553.02 670.41,-435.28 582.33,-378.92"/>
<polygon fill="#f91010" stroke="black" points="584.43,-376.11 574.12,-373.67 580.66,-382.01 584.43,-376.11"/>
<path fill="none" stroke="black" d="M854.38,-656.52C822.24,-625.17 868.87,-598 854.38,-555.52"/>
</g>
<!-- lb_ui_flows_config_wizard -->
<g id="node17" class="node">
<title>lb_ui_flows_config_wizard</title><style>.edge>path:hover{stroke-width:8}</style>
<ellipse fill="#3db8b8" stroke="black" cx="582.38" cy="-657.52" rx="53.74" ry="29.52"/>
<text xml:space="preserve" text-anchor="middle" x="582.38" y="-664.89" font-family="Helvetica,sans-Serif" font-size="10.00" fill="#000000">lb_ui.</text>
<text xml:space="preserve" text-anchor="middle" x="582.38" y="-653.64" font-family="Helvetica,sans-Serif" font-size="10.00" fill="#000000">flows.</text>
<text xml:space="preserve" text-anchor="middle" x="582.38" y="-642.39" font-family="Helvetica,sans-Serif" font-size="10.00" fill="#000000">config_wizard</text>
</g>
<!-- lb_app&#45;&gt;lb_ui_flows_config_wizard -->
<g id="edge5" class="edge">
<title>lb_app&#45;&gt;lb_ui_flows_config_wizard</title><style>.edge>path:hover{stroke-width:8}</style>
<path fill="none" stroke="black" d="M464.15,-838.86C495.65,-822.94 553.35,-789.01 582.38,-742.04"/>
</g>
<!-- lb_ui_flows_selection -->
<g id="node18" class="node">
<title>lb_ui_flows_selection</title><style>.edge>path:hover{stroke-width:8}</style>
<ellipse fill="#31c4c4" stroke="black" cx="471.38" cy="-657.52" rx="38.89" ry="29.52"/>
<text xml:space="preserve" text-anchor="middle" x="471.38" y="-664.89" font-family="Helvetica,sans-Serif" font-size="10.00" fill="#000000">lb_ui.</text>
<text xml:space="preserve" text-anchor="middle" x="471.38" y="-653.64" font-family="Helvetica,sans-Serif" font-size="10.00" fill="#000000">flows.</text>
<text xml:space="preserve" text-anchor="middle" x="471.38" y="-642.39" font-family="Helvetica,sans-Serif" font-size="10.00" fill="#000000">selection</text>
</g>
<!-- lb_app&#45;&gt;lb_ui_flows_selection -->
<g id="edge6" class="edge">
<title>lb_app&#45;&gt;lb_ui_flows_selection</title><style>.edge>path:hover{stroke-width:8}</style>
<path fill="none" stroke="black" d="M452.81,-832.93C463.41,-815.52 479.14,-786.57 485.38,-759.04 489.92,-738.97 487.41,-716.3 483.33,-697.57"/>
<polygon fill="#f91010" stroke="black" points="486.76,-696.84 480.99,-687.95 479.95,-698.49 486.76,-696.84"/>
</g>
<!-- lb_ui_presenters_doctor -->
<g id="node20" class="node">
<title>lb_ui_presenters_doctor</title><style>.edge>path:hover{stroke-width:8}</style>
<ellipse fill="#3db8b8" stroke="black" cx="67.38" cy="-657.52" rx="45.79" ry="29.52"/>
<text xml:space="preserve" text-anchor="middle" x="67.38" y="-664.89" font-family="Helvetica,sans-Serif" font-size="10.00" fill="#000000">lb_ui.</text>
<text xml:space="preserve" text-anchor="middle" x="67.38" y="-653.64" font-family="Helvetica,sans-Serif" font-size="10.00" fill="#000000">presenters.</text>
<text xml:space="preserve" text-anchor="middle" x="67.38" y="-642.39" font-family="Helvetica,sans-Serif" font-size="10.00" fill="#000000">doctor</text>
</g>
<!-- lb_app&#45;&gt;lb_ui_presenters_doctor -->
<g id="edge7" class="edge">
<title>lb_app&#45;&gt;lb_ui_presenters_doctor</title><style>.edge>path:hover{stroke-width:8}</style>
<path fill="none" stroke="black" d="M420.73,-838.68C416.01,-836.46 411.04,-834.15 406.38,-832.04 369.75,-815.45 355.51,-820.21 323.38,-796.04"/>
</g>
<!-- lb_ui_presenters_journal -->
<g id="node21" class="node">
<title>lb_ui_presenters_journal</title><style>.edge>path:hover{stroke-width:8}</style>
<ellipse fill="#31c4c4" stroke="black" cx="1033.38" cy="-657.52" rx="45.79" ry="29.52"/>
<text xml:space="preserve" text-anchor="middle" x="1033.38" y="-664.89" font-family="Helvetica,sans-Serif" font-size="10.00" fill="#000000">lb_ui.</text>
<text xml:space="preserve" text-anchor="middle" x="1033.38" y="-653.64" font-family="Helvetica,sans-Serif" font-size="10.00" fill="#000000">presenters.</text>
<text xml:space="preserve" text-anchor="middle" x="1033.38" y="-642.39" font-family="Helvetica,sans-Serif" font-size="10.00" fill="#000000">journal</text>
</g>
<!-- lb_app&#45;&gt;lb_ui_presenters_journal -->
<g id="edge8" class="edge">
<title>lb_app&#45;&gt;lb_ui_presenters_journal</title><style>.edge>path:hover{stroke-width:8}</style>
<path fill="none" stroke="black" d="M1050.38,-795.04C1077.11,-763.71 1111.55,-780.46 1126.38,-742.04"/>
<path fill="none" stroke="black" d="M1126.38,-740.04C1136.84,-712.92 1110.23,-691.68 1082.83,-677.69"/>
<polygon fill="#f91010" stroke="black" points="1084.66,-674.69 1074.13,-673.53 1081.64,-681 1084.66,-674.69"/>
</g>
<!-- lb_ui_presenters_viewmodels -->
<g id="node23" class="node">
<title>lb_ui_presenters_viewmodels</title><style>.edge>path:hover{stroke-width:8}</style>
<ellipse fill="#49acac" stroke="black" cx="740.38" cy="-657.52" rx="47.91" ry="29.52"/>
<text xml:space="preserve" text-anchor="middle" x="740.38" y="-664.89" font-family="Helvetica,sans-Serif" font-size="10.00" fill="#000000">lb_ui.</text>
<text xml:space="preserve" text-anchor="middle" x="740.38" y="-653.64" font-family="Helvetica,sans-Serif" font-size="10.00" fill="#000000">presenters.</text>
<text xml:space="preserve" text-anchor="middle" x="740.38" y="-642.39" font-family="Helvetica,sans-Serif" font-size="10.00" fill="#000000">viewmodels</text>
</g>
<!-- lb_app&#45;&gt;lb_ui_presenters_viewmodels -->
<g id="edge9" class="edge">
<title>lb_app&#45;&gt;lb_ui_presenters_viewmodels</title><style>.edge>path:hover{stroke-width:8}</style>
<path fill="none" stroke="black" d="M1050.38,-795.04C1069.39,-774.24 886.17,-708.06 792.88,-676.11"/>
<polygon fill="#f91010" stroke="black" points="794.27,-672.88 783.67,-672.97 792.01,-679.51 794.27,-672.88"/>
<path fill="none" stroke="black" d="M469.68,-848.85C583.01,-847.78 1012.21,-840.77 1050.38,-796.04"/>
</g>
<!-- lb_ui_tui_adapters_tui_adapter -->
<g id="node26" class="node">
<title>lb_ui_tui_adapters_tui_adapter</title><style>.edge>path:hover{stroke-width:8}</style>
<ellipse fill="#31c4c4" stroke="black" cx="1093.38" cy="-554.52" rx="45.25" ry="37.48"/>
<text xml:space="preserve" text-anchor="middle" x="1093.38" y="-567.52" font-family="Helvetica,sans-Serif" font-size="10.00" fill="#000000">lb_ui.</text>
<text xml:space="preserve" text-anchor="middle" x="1093.38" y="-556.27" font-family="Helvetica,sans-Serif" font-size="10.00" fill="#000000">tui.</text>
<text xml:space="preserve" text-anchor="middle" x="1093.38" y="-545.02" font-family="Helvetica,sans-Serif" font-size="10.00" fill="#000000">adapters.</text>
<text xml:space="preserve" text-anchor="middle" x="1093.38" y="-533.77" font-family="Helvetica,sans-Serif" font-size="10.00" fill="#000000">tui_adapter</text>
</g>
<!-- lb_app&#45;&gt;lb_ui_tui_adapters_tui_adapter -->
<g id="edge10" class="edge">
<title>lb_app&#45;&gt;lb_ui_tui_adapters_tui_adapter</title><style>.edge>path:hover{stroke-width:8}</style>
<path fill="none" stroke="black" d="M1126.38,-740.04C1144.1,-694.11 1129.35,-638.03 1114.32,-599.83"/>
<polygon fill="#f91010" stroke="black" points="1117.71,-598.87 1110.68,-590.95 1111.24,-601.53 1117.71,-598.87"/>
</g>
<!-- lb_app_api -->
<g id="node2" class="node">
<title>lb_app_api</title><style>.edge>path:hover{stroke-width:8}</style>
<ellipse fill="#e50505" stroke="black" cx="361.38" cy="-850.04" rx="35.65" ry="18"/>
<text xml:space="preserve" text-anchor="middle" x="361.38" y="-846.16" font-family="Helvetica,sans-Serif" font-size="10.00" fill="#ffffff">lb_app.api</text>
</g>
<!-- lb_app_api&#45;&gt;lb_ui_cli_commands_config -->
<g id="edge11" class="edge">
<title>lb_app_api&#45;&gt;lb_ui_cli_commands_config</title><style>.edge>path:hover{stroke-width:8}</style>
<path fill="none" stroke="black" d="M361.38,-795.04C390.02,-748.94 456.65,-794.27 471.38,-742.04"/>
<path fill="none" stroke="black" d="M471.38,-740.04C480,-709.45 434.81,-716.69 423.38,-687.04 385.77,-589.48 400.58,-463.96 413.02,-396.84"/>
<polygon fill="#e50505" stroke="black" points="416.4,-397.76 414.85,-387.28 409.53,-396.44 416.4,-397.76"/>
</g>
<!-- lb_app_api&#45;&gt;lb_ui_cli_commands_plugin -->
<g id="edge12" class="edge">
<title>lb_app_api&#45;&gt;lb_ui_cli_commands_plugin</title><style>.edge>path:hover{stroke-width:8}</style>
<path fill="none" stroke="black" d="M361.38,-740.04C304.74,-679.99 234.94,-751.49 183.38,-687.04 116.42,-603.34 133.24,-467.46 148.41,-396.33"/>
<polygon fill="#e50505" stroke="black" points="151.74,-397.48 150.49,-386.96 144.91,-395.96 151.74,-397.48"/>
<path fill="none" stroke="black" d="M361.38,-795.04C373.81,-775.03 377.42,-759.28 361.38,-742.04"/>
<path fill="none" stroke="black" d="M357.02,-832.02C355.18,-820.96 354.77,-806.67 361.38,-796.04"/>
</g>
<!-- lb_app_api&#45;&gt;lb_ui_cli_commands_run -->
<g id="edge13" class="edge">
<title>lb_app_api&#45;&gt;lb_ui_cli_commands_run</title><style>.edge>path:hover{stroke-width:8}</style>
<path fill="none" stroke="black" d="M816.38,-740.04C826.13,-640.83 824.45,-615.44 840.38,-517.04 845.06,-488.07 868.84,-478.05 854.38,-452.52"/>
</g>
<!-- lb_app_api&#45;&gt;lb_ui_cli_commands_runs -->
<g id="edge14" class="edge">
<title>lb_app_api&#45;&gt;lb_ui_cli_commands_runs</title><style>.edge>path:hover{stroke-width:8}</style>
<path fill="none" stroke="black" d="M389.42,-838.42C451.29,-814.98 594.23,-760.74 596.38,-759.04 626.73,-735.02 633.98,-724.03 645.38,-687.04 678.48,-579.56 608.88,-453.66 566.26,-390.32"/>
<polygon fill="#e50505" stroke="black" points="569.32,-388.6 560.79,-382.32 563.55,-392.55 569.32,-388.6"/>
</g>
<!-- lb_app_api&#45;&gt;lb_ui_flows_config_wizard -->
<g id="edge15" class="edge">
<title>lb_app_api&#45;&gt;lb_ui_flows_config_wizard</title><style>.edge>path:hover{stroke-width:8}</style>
<path fill="none" stroke="black" d="M582.38,-740.04C590.51,-728.01 592.12,-712.53 591.14,-698.3"/>
<polygon fill="#e50505" stroke="black" points="594.66,-698.28 590.04,-688.75 587.7,-699.08 594.66,-698.28"/>
<path fill="none" stroke="black" d="M361.38,-795.04C414.69,-709.24 525.81,-825.72 582.38,-742.04"/>
</g>
<!-- lb_app_api&#45;&gt;lb_ui_flows_selection -->
<g id="edge16" class="edge">
<title>lb_app_api&#45;&gt;lb_ui_flows_selection</title><style>.edge>path:hover{stroke-width:8}</style>
<path fill="none" stroke="black" d="M471.38,-740.04C475.09,-726.87 476,-712.02 475.69,-698.64"/>
<polygon fill="#e50505" stroke="black" points="479.2,-698.66 475.22,-688.84 472.2,-699 479.2,-698.66"/>
</g>
<!-- lb_app_api&#45;&gt;lb_ui_presenters_doctor -->
<g id="edge17" class="edge">
<title>lb_app_api&#45;&gt;lb_ui_presenters_doctor</title><style>.edge>path:hover{stroke-width:8}</style>
<path fill="none" stroke="black" d="M348.14,-833.1C340.19,-822.96 330.3,-809.28 323.38,-796.04"/>
<path fill="none" stroke="black" d="M323.38,-795.04C302.49,-755.11 185.74,-704.3 117.34,-677.33"/>
<polygon fill="#e50505" stroke="black" points="118.79,-674.14 108.2,-673.76 116.24,-680.66 118.79,-674.14"/>
</g>
<!-- lb_app_api&#45;&gt;lb_ui_presenters_journal -->
<g id="edge18" class="edge">
<title>lb_app_api&#45;&gt;lb_ui_presenters_journal</title><style>.edge>path:hover{stroke-width:8}</style>
<path fill="none" stroke="black" d="M387.63,-837.61C393.68,-835.4 400.17,-833.36 406.38,-832.04 538.31,-803.88 895.49,-863.39 1012.38,-796.04"/>
<path fill="none" stroke="black" d="M1012.38,-795.04C1044.07,-776.78 1045.45,-731.82 1041.39,-698.45"/>
<polygon fill="#e50505" stroke="black" points="1044.88,-698.09 1039.98,-688.7 1037.95,-699.09 1044.88,-698.09"/>
</g>
<!-- lb_app_api&#45;&gt;lb_ui_presenters_viewmodels -->
<g id="edge19" class="edge">
<title>lb_app_api&#45;&gt;lb_ui_presenters_viewmodels</title><style>.edge>path:hover{stroke-width:8}</style>
<path fill="none" stroke="black" d="M388.77,-837.97C394.53,-835.84 400.61,-833.75 406.38,-832.04 585.22,-778.93 731.56,-908.2 816.38,-742.04"/>
<path fill="none" stroke="black" d="M816.38,-740.04C818.62,-717.2 802.48,-698.03 784.5,-684.02"/>
<polygon fill="#e50505" stroke="black" points="786.97,-681.49 776.82,-678.46 782.87,-687.16 786.97,-681.49"/>
</g>
<!-- lb_app_api&#45;&gt;lb_ui_tui_adapters_tui_adapter -->
<g id="edge20" class="edge">
<title>lb_app_api&#45;&gt;lb_ui_tui_adapters_tui_adapter</title><style>.edge>path:hover{stroke-width:8}</style>
<path fill="none" stroke="black" d="M1012.38,-795.04C1065.38,-769.82 1074.77,-744.13 1088.38,-687.04 1094.82,-659.98 1096.27,-628.92 1096.01,-603.78"/>
<polygon fill="#e50505" stroke="black" points="1099.51,-603.76 1095.81,-593.83 1092.51,-603.9 1099.51,-603.76"/>
</g>
<!-- lb_common -->
<g id="node3" class="node">
<title>lb_common</title><style>.edge>path:hover{stroke-width:8}</style>
<polygon fill="blue" stroke="black" points="1105.5,-1012.04 1039.25,-1012.04 1039.25,-976.04 1105.5,-976.04 1105.5,-1012.04"/>
<text xml:space="preserve" text-anchor="middle" x="1072.38" y="-990.16" font-family="Helvetica,sans-Serif" font-size="10.00" fill="white">lb_common</text>
</g>
<!-- lb_common&#45;&gt;lb_app_api -->
<g id="edge21" class="edge">
<title>lb_common&#45;&gt;lb_app_api</title><style>.edge>path:hover{stroke-width:8}</style>
<path fill="none" stroke="black" d="M1054.38,-921.04C1040.12,-906.82 1032.02,-908.47 1012.38,-904.04 749.19,-844.64 670.24,-924.35 406.38,-868.04 403.76,-867.48 401.09,-866.79 398.42,-866.02"/>
<polygon fill="blue" stroke="black" points="399.66,-862.74 389.06,-862.94 397.47,-869.39 399.66,-862.74"/>
<path fill="none" stroke="black" d="M1072.63,-975.67C1071.89,-959.83 1068.24,-936.86 1054.38,-923.04"/>
</g>
<!-- lb_ui -->
<g id="node5" class="node">
<title>lb_ui</title><style>.edge>path:hover{stroke-width:8}</style>
<ellipse fill="#06efef" stroke="black" cx="1109.38" cy="-922.04" rx="27" ry="18"/>
<text xml:space="preserve" text-anchor="middle" x="1109.38" y="-918.16" font-family="Helvetica,sans-Serif" font-size="10.00" fill="#000000">lb_ui</text>
</g>
<!-- lb_common&#45;&gt;lb_ui -->
<g id="edge22" class="edge">
<title>lb_common&#45;&gt;lb_ui</title><style>.edge>path:hover{stroke-width:8}</style>
<path fill="none" stroke="black" d="M1081.52,-975.73C1085.77,-967.7 1090.9,-957.98 1095.6,-949.09"/>
<polygon fill="blue" stroke="black" points="1098.56,-951 1100.14,-940.52 1092.37,-947.72 1098.56,-951"/>
</g>
<!-- lb_common&#45;&gt;lb_ui_cli_commands_run -->
<g id="edge23" class="edge">
<title>lb_common&#45;&gt;lb_ui_cli_commands_run</title><style>.edge>path:hover{stroke-width:8}</style>
<path fill="none" stroke="black" d="M1164.38,-849.04C1197.66,-750.63 1156.79,-706.17 1088.38,-627.99 1070.58,-607.66 1061.05,-608.13 1039.38,-591.99 956.77,-530.51 906.76,-541.17 854.38,-452.52"/>
<path fill="none" stroke="black" d="M1054.38,-921.04C1013.34,-880.12 1140.24,-903.72 1164.38,-851.04"/>
</g>
<!-- lb_common_api -->
<g id="node4" class="node">
<title>lb_common_api</title><style>.edge>path:hover{stroke-width:8}</style>
<polygon fill="blue" stroke="black" points="1113.38,-1084.04 1031.38,-1084.04 1031.38,-1048.04 1113.38,-1048.04 1113.38,-1084.04"/>
<text xml:space="preserve" text-anchor="middle" x="1072.38" y="-1062.16" font-family="Helvetica,sans-Serif" font-size="10.00" fill="white">lb_common.api</text>
</g>
<!-- lb_common_api&#45;&gt;lb_app_api -->
<g id="edge24" class="edge">
<title>lb_common_api&#45;&gt;lb_app_api</title><style>.edge>path:hover{stroke-width:8}</style>
<path fill="none" stroke="black" d="M1031.12,-1053.97C926.1,-1025.56 640.38,-946.73 406.38,-868.04 404.15,-867.29 401.87,-866.5 399.57,-865.69"/>
<polygon fill="blue" stroke="black" points="400.88,-862.44 390.29,-862.31 398.49,-869.02 400.88,-862.44"/>
</g>
<!-- lb_common_api&#45;&gt;lb_common -->
<g id="edge25" class="edge">
<title>lb_common_api&#45;&gt;lb_common</title><style>.edge>path:hover{stroke-width:8}</style>
<path fill="none" stroke="black" d="M1072.38,-1047.73C1072.38,-1040.44 1072.38,-1031.76 1072.38,-1023.57"/>
<polygon fill="blue" stroke="black" points="1075.88,-1023.65 1072.38,-1013.65 1068.88,-1023.65 1075.88,-1023.65"/>
</g>
<!-- lb_common_api&#45;&gt;lb_ui -->
<g id="edge26" class="edge">
<title>lb_common_api&#45;&gt;lb_ui</title><style>.edge>path:hover{stroke-width:8}</style>
<path fill="none" stroke="black" d="M1164.38,-993.04C1170.03,-972.68 1153.97,-954.11 1137.77,-941.22"/>
<polygon fill="blue" stroke="black" points="1140.23,-938.68 1130.11,-935.56 1136.07,-944.32 1140.23,-938.68"/>
<path fill="none" stroke="black" d="M1113.72,-1048.33C1134.86,-1037.02 1157.55,-1019.6 1164.38,-995.04"/>
</g>
<!-- lb_common_api&#45;&gt;lb_ui_cli_commands_run -->
<g id="edge27" class="edge">
<title>lb_common_api&#45;&gt;lb_ui_cli_commands_run</title><style>.edge>path:hover{stroke-width:8}</style>
<path fill="none" stroke="black" d="M1164.38,-993.04C1181.27,-932.23 1138.09,-908.41 1164.38,-851.04"/>
</g>
<!-- lb_ui_api -->
<g id="node6" class="node">
<title>lb_ui_api</title><style>.edge>path:hover{stroke-width:8}</style>
<ellipse fill="#2e6b6b" stroke="black" cx="348.38" cy="-18" rx="30.77" ry="18"/>
<text xml:space="preserve" text-anchor="middle" x="348.38" y="-14.12" font-family="Helvetica,sans-Serif" font-size="10.00" fill="#ffffff">lb_ui.api</text>
</g>
<!-- lb_ui_cli -->
<g id="node7" class="node">
<title>lb_ui_cli</title><style>.edge>path:hover{stroke-width:8}</style>
<polygon fill="blue" stroke="black" points="375.38,-108 321.38,-108 321.38,-72 375.38,-72 375.38,-108"/>
<text xml:space="preserve" text-anchor="middle" x="348.38" y="-86.12" font-family="Helvetica,sans-Serif" font-size="10.00" fill="white">lb_ui.cli</text>
</g>
<!-- lb_ui_cli&#45;&gt;lb_ui_api -->
<g id="edge28" class="edge">
<title>lb_ui_cli&#45;&gt;lb_ui_api</title><style>.edge>path:hover{stroke-width:8}</style>
<path fill="none" stroke="black" d="M348.38,-71.7C348.38,-64.41 348.38,-55.73 348.38,-47.54"/>
<polygon fill="blue" stroke="black" points="351.88,-47.62 348.38,-37.62 344.88,-47.62 351.88,-47.62"/>
</g>
<!-- lb_ui_cli_commands -->
<g id="node8" class="node">
<title>lb_ui_cli_commands</title><style>.edge>path:hover{stroke-width:8}</style>
<ellipse fill="#3bcece" stroke="black" cx="275.38" cy="-245.52" rx="45.25" ry="29.52"/>
<text xml:space="preserve" text-anchor="middle" x="275.38" y="-252.9" font-family="Helvetica,sans-Serif" font-size="10.00" fill="#000000">lb_ui.</text>
<text xml:space="preserve" text-anchor="middle" x="275.38" y="-241.65" font-family="Helvetica,sans-Serif" font-size="10.00" fill="#000000">cli.</text>
<text xml:space="preserve" text-anchor="middle" x="275.38" y="-230.4" font-family="Helvetica,sans-Serif" font-size="10.00" fill="#000000">commands</text>
</g>
<!-- lb_ui_cli_commands&#45;&gt;lb_ui_api -->
<g id="edge29" class="edge">
<title>lb_ui_cli_commands&#45;&gt;lb_ui_api</title><style>.edge>path:hover{stroke-width:8}</style>
<path fill="none" stroke="black" d="M272.53,-215.93C271.67,-200.16 271.76,-180.32 275.38,-163"/>
</g>
<!-- lb_ui_cli_main -->
<g id="node15" class="node">
<title>lb_ui_cli_main</title><style>.edge>path:hover{stroke-width:8}</style>
<polygon fill="blue" stroke="black" points="384.88,-180 311.88,-180 311.88,-144 384.88,-144 384.88,-180"/>
<text xml:space="preserve" text-anchor="middle" x="348.38" y="-158.12" font-family="Helvetica,sans-Serif" font-size="10.00" fill="white">lb_ui.cli.main</text>
</g>
<!-- lb_ui_cli_commands&#45;&gt;lb_ui_cli_main -->
<g id="edge30" class="edge">
<title>lb_ui_cli_commands&#45;&gt;lb_ui_cli_main</title><style>.edge>path:hover{stroke-width:8}</style>
<path fill="none" stroke="black" d="M297.68,-219.62C306.5,-209.77 316.63,-198.45 325.5,-188.54"/>
<polygon fill="#3bcece" stroke="black" points="327.84,-191.18 331.91,-181.39 322.63,-186.51 327.84,-191.18"/>
</g>
<!-- lb_ui_cli_commands_config&#45;&gt;lb_ui_cli_main -->
<g id="edge31" class="edge">
<title>lb_ui_cli_commands_config&#45;&gt;lb_ui_cli_main</title><style>.edge>path:hover{stroke-width:8}</style>
<path fill="none" stroke="black" d="M389.82,-321.73C369.86,-303.26 348.38,-276.44 348.38,-246.52"/>
</g>
<!-- lb_ui_cli_commands_doctor -->
<g id="node10" class="node">
<title>lb_ui_cli_commands_doctor</title><style>.edge>path:hover{stroke-width:8}</style>
<ellipse fill="#38a8a8" stroke="black" cx="47.38" cy="-348.52" rx="47.38" ry="37.48"/>
<text xml:space="preserve" text-anchor="middle" x="47.38" y="-361.52" font-family="Helvetica,sans-Serif" font-size="10.00" fill="#000000">lb_ui.</text>
<text xml:space="preserve" text-anchor="middle" x="47.38" y="-350.27" font-family="Helvetica,sans-Serif" font-size="10.00" fill="#000000">cli.</text>
<text xml:space="preserve" text-anchor="middle" x="47.38" y="-339.02" font-family="Helvetica,sans-Serif" font-size="10.00" fill="#000000">commands.</text>
<text xml:space="preserve" text-anchor="middle" x="47.38" y="-327.77" font-family="Helvetica,sans-Serif" font-size="10.00" fill="#000000">doctor</text>
</g>
<!-- lb_ui_cli_commands_doctor&#45;&gt;lb_ui_cli_main -->
<g id="edge32" class="edge">
<title>lb_ui_cli_commands_doctor&#45;&gt;lb_ui_cli_main</title><style>.edge>path:hover{stroke-width:8}</style>
<path fill="none" stroke="black" d="M348.38,-244.52C348.38,-226.93 348.38,-207.2 348.38,-191.55"/>
<polygon fill="#38a8a8" stroke="black" points="351.88,-192.01 348.38,-182.01 344.88,-192.01 351.88,-192.01"/>
<path fill="none" stroke="black" d="M81.75,-322.37C88.95,-318.02 96.69,-313.97 104.38,-311.04 209.2,-271.11 348.38,-358.69 348.38,-246.52"/>
</g>
<!-- lb_ui_cli_commands_plugin&#45;&gt;lb_ui_api -->
<g id="edge33" class="edge">
<title>lb_ui_cli_commands_plugin&#45;&gt;lb_ui_api</title><style>.edge>path:hover{stroke-width:8}</style>
<path fill="none" stroke="black" d="M172.86,-311.89C183.44,-284.32 200.26,-245.92 221.38,-216 240.76,-188.52 268.5,-195.92 275.38,-163"/>
<path fill="none" stroke="black" d="M275.38,-161C284.33,-116.72 311.47,-71.26 330.01,-44.08"/>
<polygon fill="#28a3a3" stroke="black" points="332.68,-46.37 335.54,-36.17 326.94,-42.36 332.68,-46.37"/>
</g>
<!-- lb_ui_cli_commands_plugin&#45;&gt;lb_ui_cli_main -->
<g id="edge34" class="edge">
<title>lb_ui_cli_commands_plugin&#45;&gt;lb_ui_cli_main</title><style>.edge>path:hover{stroke-width:8}</style>
<path fill="none" stroke="black" d="M195.45,-323.09C202.52,-318.74 210.04,-314.5 217.38,-311.04 276.09,-283.39 348.38,-311.42 348.38,-246.52"/>
</g>
<!-- lb_ui_cli_commands_run&#45;&gt;lb_ui_cli_main -->
<g id="edge35" class="edge">
<title>lb_ui_cli_commands_run&#45;&gt;lb_ui_cli_main</title><style>.edge>path:hover{stroke-width:8}</style>
<path fill="none" stroke="black" d="M614.45,-322.78C607.36,-318.46 599.8,-314.3 592.38,-311.04 489.68,-265.93 348.38,-358.69 348.38,-246.52"/>
</g>
<!-- lb_ui_cli_commands_runs&#45;&gt;lb_ui_cli_main -->
<g id="edge36" class="edge">
<title>lb_ui_cli_commands_runs&#45;&gt;lb_ui_cli_main</title><style>.edge>path:hover{stroke-width:8}</style>
<path fill="none" stroke="black" d="M500.56,-323.75C493.62,-319.38 486.34,-314.97 479.38,-311.04 422.84,-279.16 348.38,-311.42 348.38,-246.52"/>
</g>
<!-- lb_ui_cli_commands_test -->
<g id="node14" class="node">
<title>lb_ui_cli_commands_test</title><style>.edge>path:hover{stroke-width:8}</style>
<ellipse fill="#40bfc0" stroke="black" cx="273.38" cy="-348.52" rx="47.38" ry="37.48"/>
<text xml:space="preserve" text-anchor="middle" x="273.38" y="-361.52" font-family="Helvetica,sans-Serif" font-size="10.00" fill="#000000">lb_ui.</text>
<text xml:space="preserve" text-anchor="middle" x="273.38" y="-350.27" font-family="Helvetica,sans-Serif" font-size="10.00" fill="#000000">cli.</text>
<text xml:space="preserve" text-anchor="middle" x="273.38" y="-339.02" font-family="Helvetica,sans-Serif" font-size="10.00" fill="#000000">commands.</text>
<text xml:space="preserve" text-anchor="middle" x="273.38" y="-327.77" font-family="Helvetica,sans-Serif" font-size="10.00" fill="#000000">test</text>
</g>
<!-- lb_ui_cli_commands_test&#45;&gt;lb_ui_cli_main -->
<g id="edge37" class="edge">
<title>lb_ui_cli_commands_test&#45;&gt;lb_ui_cli_main</title><style>.edge>path:hover{stroke-width:8}</style>
<path fill="none" stroke="black" d="M306.93,-321.73C326.9,-303.26 348.38,-276.44 348.38,-246.52"/>
</g>
<!-- lb_ui_cli_main&#45;&gt;lb_ui_api -->
<g id="edge38" class="edge">
<title>lb_ui_cli_main&#45;&gt;lb_ui_api</title><style>.edge>path:hover{stroke-width:8}</style>
<path fill="none" stroke="black" d="M1064.38,-89C1061.03,-20.99 543.84,-18.05 390.65,-18.68"/>
<polygon fill="blue" stroke="black" points="390.94,-15.17 380.95,-18.72 390.97,-22.17 390.94,-15.17"/>
<path fill="none" stroke="black" d="M385.31,-161.3C532.31,-162.01 1067.76,-159.88 1064.38,-91"/>
</g>
<!-- lb_ui_cli_main&#45;&gt;lb_ui_cli -->
<g id="edge39" class="edge">
<title>lb_ui_cli_main&#45;&gt;lb_ui_cli</title><style>.edge>path:hover{stroke-width:8}</style>
<path fill="none" stroke="black" d="M348.38,-143.7C348.38,-136.41 348.38,-127.73 348.38,-119.54"/>
<polygon fill="blue" stroke="black" points="351.88,-119.62 348.38,-109.62 344.88,-119.62 351.88,-119.62"/>
</g>
<!-- lb_ui_flows -->
<g id="node16" class="node">
<title>lb_ui_flows</title><style>.edge>path:hover{stroke-width:8}</style>
<ellipse fill="#3bcece" stroke="black" cx="263.38" cy="-657.52" rx="36.98" ry="18"/>
<text xml:space="preserve" text-anchor="middle" x="263.38" y="-653.64" font-family="Helvetica,sans-Serif" font-size="10.00" fill="#000000">lb_ui.flows</text>
</g>
<!-- lb_ui_flows&#45;&gt;lb_ui_cli_commands_config -->
<g id="edge40" class="edge">
<title>lb_ui_flows&#45;&gt;lb_ui_cli_commands_config</title><style>.edge>path:hover{stroke-width:8}</style>
<path fill="none" stroke="black" d="M263.38,-553.52C270.11,-479.92 334.02,-416.82 379,-381.02"/>
<polygon fill="#3bcece" stroke="black" points="381.06,-383.85 386.8,-374.94 376.76,-378.32 381.06,-383.85"/>
</g>
<!-- lb_ui_flows&#45;&gt;lb_ui_cli_commands_plugin -->
<g id="edge41" class="edge">
<title>lb_ui_flows&#45;&gt;lb_ui_cli_commands_plugin</title><style>.edge>path:hover{stroke-width:8}</style>
<path fill="none" stroke="black" d="M263.38,-450.52C249.2,-423.56 225.25,-399.42 204.01,-381.5"/>
<polygon fill="#3bcece" stroke="black" points="206.23,-378.8 196.28,-375.17 201.8,-384.22 206.23,-378.8"/>
<path fill="none" stroke="black" d="M262.43,-639.32C261.53,-619.18 260.69,-584.85 263.38,-555.52"/>
<path fill="none" stroke="black" d="M263.38,-553.52C267.46,-508.82 284.26,-492.25 263.38,-452.52"/>
</g>
<!-- lb_ui_flows_config_wizard&#45;&gt;lb_ui_cli_commands_config -->
<g id="edge42" class="edge">
<title>lb_ui_flows_config_wizard&#45;&gt;lb_ui_cli_commands_config</title><style>.edge>path:hover{stroke-width:8}</style>
<path fill="none" stroke="black" d="M582.39,-627.78C582.39,-607.57 582.39,-579.89 582.38,-555.52"/>
</g>
<!-- lb_ui_flows_selection&#45;&gt;lb_ui_cli_commands_config -->
<g id="edge43" class="edge">
<title>lb_ui_flows_selection&#45;&gt;lb_ui_cli_commands_config</title><style>.edge>path:hover{stroke-width:8}</style>
<path fill="none" stroke="black" d="M499.53,-636.64C530.62,-613.82 577.01,-576.8 582.38,-555.52"/>
<path fill="none" stroke="black" d="M582.38,-553.52C592.08,-515.03 512.57,-432.43 462.43,-384.98"/>
<polygon fill="#31c4c4" stroke="black" points="464.83,-382.44 455.14,-378.15 460.04,-387.55 464.83,-382.44"/>
</g>
<!-- lb_ui_flows_selection&#45;&gt;lb_ui_cli_commands_plugin -->
<g id="edge44" class="edge">
<title>lb_ui_flows_selection&#45;&gt;lb_ui_cli_commands_plugin</title><style>.edge>path:hover{stroke-width:8}</style>
<path fill="none" stroke="black" d="M442.67,-637.52C396.63,-605.37 307.03,-535.57 263.38,-452.52"/>
</g>
<!-- lb_ui_presenters -->
<g id="node19" class="node">
<title>lb_ui_presenters</title><style>.edge>path:hover{stroke-width:8}</style>
<ellipse fill="#2fdbdb" stroke="black" cx="926.38" cy="-657.52" rx="43.66" ry="21.57"/>
<text xml:space="preserve" text-anchor="middle" x="926.38" y="-659.27" font-family="Helvetica,sans-Serif" font-size="10.00" fill="#000000">lb_ui.</text>
<text xml:space="preserve" text-anchor="middle" x="926.38" y="-648.02" font-family="Helvetica,sans-Serif" font-size="10.00" fill="#000000">presenters</text>
</g>
<!-- lb_ui_presenters&#45;&gt;lb_ui_api -->
<g id="edge45" class="edge">
<title>lb_ui_presenters&#45;&gt;lb_ui_api</title><style>.edge>path:hover{stroke-width:8}</style>
<path fill="none" stroke="black" d="M1074.38,-347.52C1065.39,-265.88 1055.21,-244.62 1064.38,-163"/>
<path fill="none" stroke="black" d="M1008.38,-450.52C1024.18,-418.75 1036.21,-415.85 1055.38,-386 1065.25,-370.61 1076.52,-367.67 1074.38,-349.52"/>
<path fill="none" stroke="black" d="M933.48,-635.78C946.55,-598.37 976.07,-517.45 1008.38,-452.52"/>
</g>
<!-- lb_ui_presenters&#45;&gt;lb_ui_cli_commands_doctor -->
<g id="edge46" class="edge">
<title>lb_ui_presenters&#45;&gt;lb_ui_cli_commands_doctor</title><style>.edge>path:hover{stroke-width:8}</style>
<path fill="none" stroke="black" d="M897.09,-641.07C815.16,-598.58 575.64,-479.33 362.38,-422 250.57,-391.94 212.98,-426.13 104.38,-386 100.04,-384.39 95.68,-382.42 91.42,-380.23"/>
<polygon fill="#2fdbdb" stroke="black" points="93.46,-377.36 83.03,-375.53 90.04,-383.47 93.46,-377.36"/>
</g>
<!-- lb_ui_presenters&#45;&gt;lb_ui_cli_commands_run -->
<g id="edge47" class="edge">
<title>lb_ui_presenters&#45;&gt;lb_ui_cli_commands_run</title><style>.edge>path:hover{stroke-width:8}</style>
<path fill="none" stroke="black" d="M894.38,-553.52C869.9,-511.9 878.35,-494.43 854.38,-452.52"/>
<path fill="none" stroke="black" d="M922.63,-635.66C918.17,-614.41 909.39,-581.04 894.38,-555.52"/>
</g>
<!-- lb_ui_presenters_doctor&#45;&gt;lb_ui_cli_commands_doctor -->
<g id="edge48" class="edge">
<title>lb_ui_presenters_doctor&#45;&gt;lb_ui_cli_commands_doctor</title><style>.edge>path:hover{stroke-width:8}</style>
<path fill="none" stroke="black" d="M65.49,-627.63C62.05,-574.8 54.71,-462.09 50.51,-397.55"/>
<polygon fill="#3db8b8" stroke="black" points="54,-397.35 49.86,-387.59 47.01,-397.8 54,-397.35"/>
</g>
<!-- lb_ui_presenters_journal&#45;&gt;lb_ui_api -->
<g id="edge49" class="edge">
<title>lb_ui_presenters_journal&#45;&gt;lb_ui_api</title><style>.edge>path:hover{stroke-width:8}</style>
<path fill="none" stroke="black" d="M1021.5,-628.63C1006.14,-588.23 984.06,-511.77 1008.38,-452.52"/>
</g>
<!-- lb_ui_presenters_journal&#45;&gt;lb_ui_cli_commands_run -->
<g id="edge50" class="edge">
<title>lb_ui_presenters_journal&#45;&gt;lb_ui_cli_commands_run</title><style>.edge>path:hover{stroke-width:8}</style>
<path fill="none" stroke="black" d="M1000.23,-636.78C963.3,-614.08 907.12,-577.18 894.38,-555.52"/>
</g>
<!-- lb_ui_presenters_plan -->
<g id="node22" class="node">
<title>lb_ui_presenters_plan</title><style>.edge>path:hover{stroke-width:8}</style>
<ellipse fill="#3bcece" stroke="black" cx="1257.38" cy="-657.52" rx="45.79" ry="29.52"/>
<text xml:space="preserve" text-anchor="middle" x="1257.38" y="-664.89" font-family="Helvetica,sans-Serif" font-size="10.00" fill="#000000">lb_ui.</text>
<text xml:space="preserve" text-anchor="middle" x="1257.38" y="-653.64" font-family="Helvetica,sans-Serif" font-size="10.00" fill="#000000">presenters.</text>
<text xml:space="preserve" text-anchor="middle" x="1257.38" y="-642.39" font-family="Helvetica,sans-Serif" font-size="10.00" fill="#000000">plan</text>
</g>
<!-- lb_ui_presenters_plan&#45;&gt;lb_ui_api -->
<g id="edge51" class="edge">
<title>lb_ui_presenters_plan&#45;&gt;lb_ui_api</title><style>.edge>path:hover{stroke-width:8}</style>
<path fill="none" stroke="black" d="M1178.38,-553.52C1160.13,-512.51 1187.27,-496.52 1178.38,-452.52"/>
</g>
<!-- lb_ui_presenters_plan&#45;&gt;lb_ui_cli_commands_run -->
<g id="edge52" class="edge">
<title>lb_ui_presenters_plan&#45;&gt;lb_ui_cli_commands_run</title><style>.edge>path:hover{stroke-width:8}</style>
<path fill="none" stroke="black" d="M1232.72,-632.26C1214.77,-613.1 1191.4,-584.81 1178.38,-555.52"/>
<path fill="none" stroke="black" d="M1178.38,-553.52C1152.49,-495.3 1171.82,-460.91 1121.38,-422 1089.06,-397.06 827.12,-367.6 707.99,-355.33"/>
<polygon fill="#3bcece" stroke="black" points="708.38,-351.85 698.08,-354.32 707.67,-358.82 708.38,-351.85"/>
</g>
<!-- lb_ui_tui -->
<g id="node24" class="node">
<title>lb_ui_tui</title><style>.edge>path:hover{stroke-width:8}</style>
<ellipse fill="#18dddd" stroke="black" cx="1017.38" cy="-348.52" rx="29.44" ry="18"/>
<text xml:space="preserve" text-anchor="middle" x="1017.38" y="-344.65" font-family="Helvetica,sans-Serif" font-size="10.00" fill="#000000">lb_ui.tui</text>
</g>
<!-- lb_ui_tui&#45;&gt;lb_ui_api -->
<g id="edge53" class="edge">
<title>lb_ui_tui&#45;&gt;lb_ui_api</title><style>.edge>path:hover{stroke-width:8}</style>
<path fill="none" stroke="black" d="M1064.38,-161C1067.85,-130.08 1065.9,-122.07 1064.38,-91"/>
<path fill="none" stroke="black" d="M1026.38,-244.52C1003.34,-211.85 1059.91,-202.73 1064.38,-163"/>
</g>
<!-- lb_ui_tui&#45;&gt;lb_ui_cli_main -->
<g id="edge54" class="edge">
<title>lb_ui_tui&#45;&gt;lb_ui_cli_main</title><style>.edge>path:hover{stroke-width:8}</style>
<path fill="none" stroke="black" d="M1024.99,-330.78C1033.53,-309.22 1044.03,-271.55 1026.38,-246.52"/>
<path fill="none" stroke="black" d="M1026.38,-244.52C990.04,-192.99 545.88,-170.81 396.8,-164.78"/>
<polygon fill="#18dddd" stroke="black" points="397,-161.29 386.87,-164.39 396.72,-168.28 397,-161.29"/>
</g>
<!-- lb_ui_tui_adapters -->
<g id="node25" class="node">
<title>lb_ui_tui_adapters</title><style>.edge>path:hover{stroke-width:8}</style>
<ellipse fill="#2db4b4" stroke="black" cx="1074.38" cy="-451.52" rx="37.83" ry="29.52"/>
<text xml:space="preserve" text-anchor="middle" x="1074.38" y="-458.89" font-family="Helvetica,sans-Serif" font-size="10.00" fill="#000000">lb_ui.</text>
<text xml:space="preserve" text-anchor="middle" x="1074.38" y="-447.64" font-family="Helvetica,sans-Serif" font-size="10.00" fill="#000000">tui.</text>
<text xml:space="preserve" text-anchor="middle" x="1074.38" y="-436.39" font-family="Helvetica,sans-Serif" font-size="10.00" fill="#000000">adapters</text>
</g>
<!-- lb_ui_tui_adapters&#45;&gt;lb_ui_api -->
<g id="edge55" class="edge">
<title>lb_ui_tui_adapters&#45;&gt;lb_ui_api</title><style>.edge>path:hover{stroke-width:8}</style>
<path fill="none" stroke="black" d="M1076.05,-421.69C1076.81,-401.44 1077.04,-373.75 1074.38,-349.52"/>
</g>
<!-- lb_ui_tui_adapters_tui_adapter&#45;&gt;lb_ui_api -->
<g id="edge56" class="edge">
<title>lb_ui_tui_adapters_tui_adapter&#45;&gt;lb_ui_api</title><style>.edge>path:hover{stroke-width:8}</style>
<path fill="none" stroke="black" d="M1130.11,-532.14C1156.03,-513.94 1185.05,-485.54 1178.38,-452.52"/>
<path fill="none" stroke="black" d="M1178.38,-450.52C1165.61,-387.36 1081.42,-413.57 1074.38,-349.52"/>
</g>
<!-- lb_ui_tui_adapters_tui_adapter&#45;&gt;lb_ui_tui_adapters -->
<g id="edge57" class="edge">
<title>lb_ui_tui_adapters_tui_adapter&#45;&gt;lb_ui_tui_adapters</title><style>.edge>path:hover{stroke-width:8}</style>
<path fill="none" stroke="black" d="M1086.52,-517.05C1085,-508.99 1083.38,-500.41 1081.84,-492.22"/>
<polygon fill="#31c4c4" stroke="black" points="1085.3,-491.67 1080.01,-482.49 1078.42,-492.97 1085.3,-491.67"/>
</g>
<!-- typer -->
<g id="node27" class="node">
<title>typer</title><style>.edge>path:hover{stroke-width:8}</style>
<ellipse fill="#7f06f9" stroke="black" cx="416.38" cy="-741.04" rx="27" ry="18"/>
<text xml:space="preserve" text-anchor="middle" x="416.38" y="-737.16" font-family="Helvetica,sans-Serif" font-size="10.00" fill="#ffffff">typer</text>
</g>
<!-- typer&#45;&gt;lb_ui_cli_commands_config -->
<g id="edge58" class="edge">
<title>typer&#45;&gt;lb_ui_cli_commands_config</title><style>.edge>path:hover{stroke-width:8}</style>
<path fill="none" stroke="black" d="M348.38,-450.52C353.78,-426.15 369.31,-403.41 384.84,-385.7"/>
<polygon fill="#7f06f9" stroke="black" points="387.23,-388.27 391.4,-378.54 382.07,-383.55 387.23,-388.27"/>
</g>
<!-- typer&#45;&gt;lb_ui_cli_commands_doctor -->
<g id="edge59" class="edge">
<title>typer&#45;&gt;lb_ui_cli_commands_doctor</title><style>.edge>path:hover{stroke-width:8}</style>
<path fill="none" stroke="black" d="M198.38,-450.52C197.81,-447.37 137.42,-407.71 93.19,-379.04"/>
<polygon fill="#7f06f9" stroke="black" points="95.31,-376.25 85.01,-373.75 91.51,-382.12 95.31,-376.25"/>
<path fill="none" stroke="black" d="M394.5,-730.17C388.39,-727.63 381.69,-725.05 375.38,-723.04 306.76,-701.17 264.53,-741.48 217.38,-687.04 148.91,-607.99 216.76,-555.46 198.38,-452.52"/>
</g>
<!-- typer&#45;&gt;lb_ui_cli_commands_plugin -->
<g id="edge60" class="edge">
<title>typer&#45;&gt;lb_ui_cli_commands_plugin</title><style>.edge>path:hover{stroke-width:8}</style>
<path fill="none" stroke="black" d="M198.38,-450.52C194.97,-431.43 188.1,-411.26 181.13,-394.01"/>
<polygon fill="#7f06f9" stroke="black" points="184.48,-392.95 177.39,-385.08 178.03,-395.66 184.48,-392.95"/>
</g>
<!-- typer&#45;&gt;lb_ui_cli_commands_run -->
<g id="edge61" class="edge">
<title>typer&#45;&gt;lb_ui_cli_commands_run</title><style>.edge>path:hover{stroke-width:8}</style>
<path fill="none" stroke="black" d="M411.69,-722.88C406.21,-698.63 400.53,-654.36 423.38,-627.99 474.81,-568.64 522.61,-618.95 596.38,-591.99 657.59,-569.62 886.74,-509.09 854.38,-452.52"/>
<path fill="none" stroke="black" d="M854.38,-450.52C824.35,-397.52 756.6,-371.76 707.17,-359.63"/>
<polygon fill="#7f06f9" stroke="black" points="707.99,-356.23 697.46,-357.38 706.41,-363.05 707.99,-356.23"/>
</g>
<!-- typer&#45;&gt;lb_ui_cli_commands_runs -->
<g id="edge62" class="edge">
<title>typer&#45;&gt;lb_ui_cli_commands_runs</title><style>.edge>path:hover{stroke-width:8}</style>
<path fill="none" stroke="black" d="M328.38,-656.52C322.68,-625.84 444.9,-465.56 504.56,-389.57"/>
<polygon fill="#7f06f9" stroke="black" points="507.14,-391.95 510.58,-381.92 501.64,-387.62 507.14,-391.95"/>
</g>
<!-- typer&#45;&gt;lb_ui_cli_commands_test -->
<g id="edge63" class="edge">
<title>typer&#45;&gt;lb_ui_cli_commands_test</title><style>.edge>path:hover{stroke-width:8}</style>
<path fill="none" stroke="black" d="M198.38,-450.52C193.66,-424.11 210.73,-399.79 229.77,-381.64"/>
<polygon fill="#7f06f9" stroke="black" points="232.06,-384.29 237.17,-375.01 227.38,-379.08 232.06,-384.29"/>
</g>
<!-- typer&#45;&gt;lb_ui_cli_main -->
<g id="edge64" class="edge">
<title>typer&#45;&gt;lb_ui_cli_main</title><style>.edge>path:hover{stroke-width:8}</style>
<path fill="none" stroke="black" d="M328.38,-656.52C305.74,-568.27 328.66,-541.46 348.38,-452.52"/>
<path fill="none" stroke="black" d="M395.39,-729.44C372.58,-716.43 338.1,-691.91 328.38,-658.52"/>
<path fill="none" stroke="black" d="M348.38,-450.52C373.95,-363.54 348.38,-337.19 348.38,-246.52"/>
</g>
</g>
</svg>
