<?xml version="1.0" encoding="UTF-8" standalone="no"?>
<!DOCTYPE svg PUBLIC "-//W3C//DTD SVG 1.1//EN"
 "http://www.w3.org/Graphics/SVG/1.1/DTD/svg11.dtd">
<!-- Generated by graphviz version 14.1.1 (20251213.1925)
 -->
<!-- Title: G Pages: 1 -->
<svg width="2064pt" height="748pt"
 viewBox="0.00 0.00 2064.00 748.00" xmlns="http://www.w3.org/2000/svg" xmlns:xlink="http://www.w3.org/1999/xlink">
<g id="graph0" class="graph" transform="scale(1 1) rotate(0) translate(4 743.53)">
<title>G</title><style>.edge>path:hover{stroke-width:8}</style>
<polygon fill="white" stroke="none" points="-4,4 -4,-743.53 2060.19,-743.53 2060.19,4 -4,4"/>
<!-- lb_common -->
<g id="node1" class="node">
<title>lb_common</title><style>.edge>path:hover{stroke-width:8}</style>
<ellipse fill="#c04040" stroke="black" cx="855" cy="-450.7" rx="39.2" ry="18"/>
<text xml:space="preserve" text-anchor="middle" x="855" y="-446.82" font-family="Helvetica,sans-Serif" font-size="10.00" fill="#ffffff">lb_common</text>
</g>
<!-- lb_plugins_registry -->
<g id="node24" class="node">
<title>lb_plugins_registry</title><style>.edge>path:hover{stroke-width:8}</style>
<ellipse fill="#98b620" stroke="black" cx="985" cy="-252.66" rx="44.19" ry="21.57"/>
<text xml:space="preserve" text-anchor="middle" x="985" y="-254.41" font-family="Helvetica,sans-Serif" font-size="10.00" fill="#000000">lb_plugins.</text>
<text xml:space="preserve" text-anchor="middle" x="985" y="-243.16" font-family="Helvetica,sans-Serif" font-size="10.00" fill="#000000">registry</text>
</g>
<!-- lb_common&#45;&gt;lb_plugins_registry -->
<g id="edge1" class="edge">
<title>lb_common&#45;&gt;lb_plugins_registry</title><style>.edge>path:hover{stroke-width:8}</style>
<path fill="none" stroke="black" d="M882.69,-437.63C902.53,-427.89 928.85,-412.61 947,-393.13 959.46,-379.75 956.89,-372.5 966,-356.65"/>
</g>
<!-- lb_common_entrypoints -->
<g id="node2" class="node">
<title>lb_common_entrypoints</title><style>.edge>path:hover{stroke-width:8}</style>
<ellipse fill="#b65353" stroke="black" cx="961" cy="-450.7" rx="48.97" ry="21.57"/>
<text xml:space="preserve" text-anchor="middle" x="961" y="-452.45" font-family="Helvetica,sans-Serif" font-size="10.00" fill="#ffffff">lb_common.</text>
<text xml:space="preserve" text-anchor="middle" x="961" y="-441.2" font-family="Helvetica,sans-Serif" font-size="10.00" fill="#ffffff">entrypoints</text>
</g>
<!-- lb_common_entrypoints&#45;&gt;lb_plugins_registry -->
<g id="edge2" class="edge">
<title>lb_common_entrypoints&#45;&gt;lb_plugins_registry</title><style>.edge>path:hover{stroke-width:8}</style>
<path fill="none" stroke="black" d="M957.04,-428.97C954.34,-409.06 953.26,-378.81 966,-356.65"/>
</g>
<!-- lb_plugins -->
<g id="node3" class="node">
<title>lb_plugins</title><style>.edge>path:hover{stroke-width:8}</style>
<polygon fill="blue" stroke="black" points="1167.75,-36 1108.25,-36 1108.25,0 1167.75,0 1167.75,-36"/>
<text xml:space="preserve" text-anchor="middle" x="1138" y="-14.12" font-family="Helvetica,sans-Serif" font-size="10.00" fill="white">lb_plugins</text>
</g>
<!-- lb_plugins_api -->
<g id="node4" class="node">
<title>lb_plugins_api</title><style>.edge>path:hover{stroke-width:8}</style>
<polygon fill="blue" stroke="black" points="1175.62,-108 1100.38,-108 1100.38,-72 1175.62,-72 1175.62,-108"/>
<text xml:space="preserve" text-anchor="middle" x="1138" y="-86.12" font-family="Helvetica,sans-Serif" font-size="10.00" fill="white">lb_plugins.api</text>
</g>
<!-- lb_plugins_api&#45;&gt;lb_plugins -->
<g id="edge3" class="edge">
<title>lb_plugins_api&#45;&gt;lb_plugins</title><style>.edge>path:hover{stroke-width:8}</style>
<path fill="none" stroke="black" d="M1138,-71.7C1138,-64.41 1138,-55.73 1138,-47.54"/>
<polygon fill="blue" stroke="black" points="1141.5,-47.62 1138,-37.62 1134.5,-47.62 1141.5,-47.62"/>
</g>
<!-- lb_plugins_base_generator -->
<g id="node5" class="node">
<title>lb_plugins_base_generator</title><style>.edge>path:hover{stroke-width:8}</style>
<ellipse fill="#cbf910" stroke="black" cx="365" cy="-608.96" rx="58.51" ry="21.57"/>
<text xml:space="preserve" text-anchor="middle" x="365" y="-610.71" font-family="Helvetica,sans-Serif" font-size="10.00" fill="#000000">lb_plugins.</text>
<text xml:space="preserve" text-anchor="middle" x="365" y="-599.46" font-family="Helvetica,sans-Serif" font-size="10.00" fill="#000000">base_generator</text>
</g>
<!-- lb_plugins_base_generator&#45;&gt;lb_plugins_api -->
<g id="edge4" class="edge">
<title>lb_plugins_base_generator&#45;&gt;lb_plugins_api</title><style>.edge>path:hover{stroke-width:8}</style>
<path fill="none" stroke="black" d="M240,-449.7C220.36,-394 226.35,-367.39 259,-318.18 289.7,-271.9 347.52,-306.02 366,-253.66"/>
</g>
<!-- lb_plugins_plugins_baseline_plugin -->
<g id="node11" class="node">
<title>lb_plugins_plugins_baseline_plugin</title><style>.edge>path:hover{stroke-width:8}</style>
<ellipse fill="#99b03a" stroke="black" cx="526" cy="-355.65" rx="44.19" ry="37.48"/>
<text xml:space="preserve" text-anchor="middle" x="526" y="-368.65" font-family="Helvetica,sans-Serif" font-size="10.00" fill="#000000">lb_plugins.</text>
<text xml:space="preserve" text-anchor="middle" x="526" y="-357.4" font-family="Helvetica,sans-Serif" font-size="10.00" fill="#000000">plugins.</text>
<text xml:space="preserve" text-anchor="middle" x="526" y="-346.15" font-family="Helvetica,sans-Serif" font-size="10.00" fill="#000000">baseline.</text>
<text xml:space="preserve" text-anchor="middle" x="526" y="-334.9" font-family="Helvetica,sans-Serif" font-size="10.00" fill="#000000">plugin</text>
</g>
<!-- lb_plugins_base_generator&#45;&gt;lb_plugins_plugins_baseline_plugin -->
<g id="edge5" class="edge">
<title>lb_plugins_base_generator&#45;&gt;lb_plugins_plugins_baseline_plugin</title><style>.edge>path:hover{stroke-width:8}</style>
<path fill="none" stroke="black" d="M385.79,-588.58C400.23,-574.01 418.81,-552.84 430,-530.83"/>
</g>
<!-- lb_plugins_plugins_dd_plugin -->
<g id="node13" class="node">
<title>lb_plugins_plugins_dd_plugin</title><style>.edge>path:hover{stroke-width:8}</style>
<ellipse fill="#99b03a" stroke="black" cx="738" cy="-355.65" rx="44.19" ry="37.48"/>
<text xml:space="preserve" text-anchor="middle" x="738" y="-368.65" font-family="Helvetica,sans-Serif" font-size="10.00" fill="#000000">lb_plugins.</text>
<text xml:space="preserve" text-anchor="middle" x="738" y="-357.4" font-family="Helvetica,sans-Serif" font-size="10.00" fill="#000000">plugins.</text>
<text xml:space="preserve" text-anchor="middle" x="738" y="-346.15" font-family="Helvetica,sans-Serif" font-size="10.00" fill="#000000">dd.</text>
<text xml:space="preserve" text-anchor="middle" x="738" y="-334.9" font-family="Helvetica,sans-Serif" font-size="10.00" fill="#000000">plugin</text>
</g>
<!-- lb_plugins_base_generator&#45;&gt;lb_plugins_plugins_dd_plugin -->
<g id="edge6" class="edge">
<title>lb_plugins_base_generator&#45;&gt;lb_plugins_plugins_dd_plugin</title><style>.edge>path:hover{stroke-width:8}</style>
<path fill="none" stroke="black" d="M674,-528.83C689.36,-485.92 681.51,-471.62 698,-429.13 701.86,-419.19 706.84,-408.93 711.97,-399.36"/>
<polygon fill="#cbf910" stroke="black" points="715.02,-401.07 716.81,-390.63 708.9,-397.68 715.02,-401.07"/>
<path fill="none" stroke="black" d="M421.96,-603.67C504.98,-595.91 651.78,-575.97 674,-530.83"/>
</g>
<!-- lb_plugins_plugins_fio_plugin -->
<g id="node15" class="node">
<title>lb_plugins_plugins_fio_plugin</title><style>.edge>path:hover{stroke-width:8}</style>
<ellipse fill="#92a838" stroke="black" cx="1076" cy="-355.65" rx="44.19" ry="37.48"/>
<text xml:space="preserve" text-anchor="middle" x="1076" y="-368.65" font-family="Helvetica,sans-Serif" font-size="10.00" fill="#000000">lb_plugins.</text>
<text xml:space="preserve" text-anchor="middle" x="1076" y="-357.4" font-family="Helvetica,sans-Serif" font-size="10.00" fill="#000000">plugins.</text>
<text xml:space="preserve" text-anchor="middle" x="1076" y="-346.15" font-family="Helvetica,sans-Serif" font-size="10.00" fill="#000000">fio.</text>
<text xml:space="preserve" text-anchor="middle" x="1076" y="-334.9" font-family="Helvetica,sans-Serif" font-size="10.00" fill="#000000">plugin</text>
</g>
<!-- lb_plugins_base_generator&#45;&gt;lb_plugins_plugins_fio_plugin -->
<g id="edge7" class="edge">
<title>lb_plugins_base_generator&#45;&gt;lb_plugins_plugins_fio_plugin</title><style>.edge>path:hover{stroke-width:8}</style>
<path fill="none" stroke="black" d="M788,-528.83C901.04,-488.56 967.42,-557.38 1052,-472.26 1069.37,-454.79 1075.72,-428.24 1077.57,-404.98"/>
<polygon fill="#cbf910" stroke="black" points="1081.06,-405.22 1078.07,-395.05 1074.07,-404.86 1081.06,-405.22"/>
<path fill="none" stroke="black" d="M420.91,-602.1C492.35,-593.95 619.5,-577.22 726,-551.4 754.21,-544.56 760.71,-540.74 788,-530.83"/>
</g>
<!-- lb_plugins_plugins_phoronix_test_suite_plugin -->
<g id="node17" class="node">
<title>lb_plugins_plugins_phoronix_test_suite_plugin</title><style>.edge>path:hover{stroke-width:8}</style>
<ellipse fill="#92a838" stroke="black" cx="139" cy="-355.65" rx="73.36" ry="37.48"/>
<text xml:space="preserve" text-anchor="middle" x="139" y="-368.65" font-family="Helvetica,sans-Serif" font-size="10.00" fill="#000000">lb_plugins.</text>
<text xml:space="preserve" text-anchor="middle" x="139" y="-357.4" font-family="Helvetica,sans-Serif" font-size="10.00" fill="#000000">plugins.</text>
<text xml:space="preserve" text-anchor="middle" x="139" y="-346.15" font-family="Helvetica,sans-Serif" font-size="10.00" fill="#000000">phoronix_test_suite.</text>
<text xml:space="preserve" text-anchor="middle" x="139" y="-334.9" font-family="Helvetica,sans-Serif" font-size="10.00" fill="#000000">plugin</text>
</g>
<!-- lb_plugins_base_generator&#45;&gt;lb_plugins_plugins_phoronix_test_suite_plugin -->
<g id="edge8" class="edge">
<title>lb_plugins_base_generator&#45;&gt;lb_plugins_plugins_phoronix_test_suite_plugin</title><style>.edge>path:hover{stroke-width:8}</style>
<path fill="none" stroke="black" d="M322.87,-593.65C302.24,-584.59 278.74,-570.86 264,-551.4 236.48,-515.07 251.02,-495.92 240,-451.7"/>
<path fill="none" stroke="black" d="M240,-449.7C231.79,-426.4 213.68,-406.73 195.04,-391.55"/>
<polygon fill="#cbf910" stroke="black" points="197.42,-388.97 187.37,-385.61 193.13,-394.5 197.42,-388.97"/>
</g>
<!-- lb_plugins_plugins_stream_plugin -->
<g id="node19" class="node">
<title>lb_plugins_plugins_stream_plugin</title><style>.edge>path:hover{stroke-width:8}</style>
<ellipse fill="#92a838" stroke="black" cx="632" cy="-355.65" rx="44.19" ry="37.48"/>
<text xml:space="preserve" text-anchor="middle" x="632" y="-368.65" font-family="Helvetica,sans-Serif" font-size="10.00" fill="#000000">lb_plugins.</text>
<text xml:space="preserve" text-anchor="middle" x="632" y="-357.4" font-family="Helvetica,sans-Serif" font-size="10.00" fill="#000000">plugins.</text>
<text xml:space="preserve" text-anchor="middle" x="632" y="-346.15" font-family="Helvetica,sans-Serif" font-size="10.00" fill="#000000">stream.</text>
<text xml:space="preserve" text-anchor="middle" x="632" y="-334.9" font-family="Helvetica,sans-Serif" font-size="10.00" fill="#000000">plugin</text>
</g>
<!-- lb_plugins_base_generator&#45;&gt;lb_plugins_plugins_stream_plugin -->
<g id="edge9" class="edge">
<title>lb_plugins_base_generator&#45;&gt;lb_plugins_plugins_stream_plugin</title><style>.edge>path:hover{stroke-width:8}</style>
<path fill="none" stroke="black" d="M594,-528.83C599.78,-517.81 613.55,-451.33 622.82,-404.29"/>
<polygon fill="#cbf910" stroke="black" points="626.24,-405.06 624.73,-394.58 619.37,-403.72 626.24,-405.06"/>
<path fill="none" stroke="black" d="M423.46,-606.71C478,-602.02 556.42,-585.43 594,-530.83"/>
</g>
<!-- lb_plugins_plugins_sysbench_plugin -->
<g id="node21" class="node">
<title>lb_plugins_plugins_sysbench_plugin</title><style>.edge>path:hover{stroke-width:8}</style>
<ellipse fill="#99b03a" stroke="black" cx="312" cy="-355.65" rx="44.19" ry="37.48"/>
<text xml:space="preserve" text-anchor="middle" x="312" y="-368.65" font-family="Helvetica,sans-Serif" font-size="10.00" fill="#000000">lb_plugins.</text>
<text xml:space="preserve" text-anchor="middle" x="312" y="-357.4" font-family="Helvetica,sans-Serif" font-size="10.00" fill="#000000">plugins.</text>
<text xml:space="preserve" text-anchor="middle" x="312" y="-346.15" font-family="Helvetica,sans-Serif" font-size="10.00" fill="#000000">sysbench.</text>
<text xml:space="preserve" text-anchor="middle" x="312" y="-334.9" font-family="Helvetica,sans-Serif" font-size="10.00" fill="#000000">plugin</text>
</g>
<!-- lb_plugins_base_generator&#45;&gt;lb_plugins_plugins_sysbench_plugin -->
<g id="edge10" class="edge">
<title>lb_plugins_base_generator&#45;&gt;lb_plugins_plugins_sysbench_plugin</title><style>.edge>path:hover{stroke-width:8}</style>
<path fill="none" stroke="black" d="M331,-591.11C309.67,-578.12 284.93,-557.81 278,-530.83"/>
</g>
<!-- lb_plugins_plugins_unixbench_plugin -->
<g id="node23" class="node">
<title>lb_plugins_plugins_unixbench_plugin</title><style>.edge>path:hover{stroke-width:8}</style>
<ellipse fill="#99b03a" stroke="black" cx="419" cy="-355.65" rx="44.72" ry="37.48"/>
<text xml:space="preserve" text-anchor="middle" x="419" y="-368.65" font-family="Helvetica,sans-Serif" font-size="10.00" fill="#000000">lb_plugins.</text>
<text xml:space="preserve" text-anchor="middle" x="419" y="-357.4" font-family="Helvetica,sans-Serif" font-size="10.00" fill="#000000">plugins.</text>
<text xml:space="preserve" text-anchor="middle" x="419" y="-346.15" font-family="Helvetica,sans-Serif" font-size="10.00" fill="#000000">unixbench.</text>
<text xml:space="preserve" text-anchor="middle" x="419" y="-334.9" font-family="Helvetica,sans-Serif" font-size="10.00" fill="#000000">plugin</text>
</g>
<!-- lb_plugins_base_generator&#45;&gt;lb_plugins_plugins_unixbench_plugin -->
<g id="edge11" class="edge">
<title>lb_plugins_base_generator&#45;&gt;lb_plugins_plugins_unixbench_plugin</title><style>.edge>path:hover{stroke-width:8}</style>
<path fill="none" stroke="black" d="M358.27,-587.24C354.13,-571.65 350.25,-549.81 354,-530.83"/>
</g>
<!-- lb_plugins_base_generator&#45;&gt;lb_plugins_registry -->
<g id="edge12" class="edge">
<title>lb_plugins_base_generator&#45;&gt;lb_plugins_registry</title><style>.edge>path:hover{stroke-width:8}</style>
<path fill="none" stroke="black" d="M421.86,-603.46C502.53,-596.17 645.18,-579.67 688,-551.4 758.03,-505.15 749.08,-465.83 791,-393.13 809.66,-360.78 801.59,-343.55 829,-318.18 858.37,-290.99 900.8,-274.44 933.99,-264.93"/>
<polygon fill="#cbf910" stroke="black" points="934.68,-268.37 943.41,-262.36 932.84,-261.62 934.68,-268.37"/>
</g>
<!-- lb_plugins_builtin -->
<g id="node6" class="node">
<title>lb_plugins_builtin</title><style>.edge>path:hover{stroke-width:8}</style>
<ellipse fill="#b1ce3b" stroke="black" cx="1216" cy="-252.66" rx="44.19" ry="21.57"/>
<text xml:space="preserve" text-anchor="middle" x="1216" y="-254.41" font-family="Helvetica,sans-Serif" font-size="10.00" fill="#000000">lb_plugins.</text>
<text xml:space="preserve" text-anchor="middle" x="1216" y="-243.16" font-family="Helvetica,sans-Serif" font-size="10.00" fill="#000000">builtin</text>
</g>
<!-- lb_plugins_builtin&#45;&gt;lb_plugins_api -->
<g id="edge13" class="edge">
<title>lb_plugins_builtin&#45;&gt;lb_plugins_api</title><style>.edge>path:hover{stroke-width:8}</style>
<path fill="none" stroke="black" d="M1210.76,-231.03C1204.65,-208.76 1193.38,-172.64 1178,-144 1173.01,-134.7 1166.47,-125.28 1160.13,-117"/>
<polygon fill="#b1ce3b" stroke="black" points="1163.05,-115.06 1154.09,-109.41 1157.57,-119.41 1163.05,-115.06"/>
</g>
<!-- lb_plugins_settings -->
<g id="node25" class="node">
<title>lb_plugins_settings</title><style>.edge>path:hover{stroke-width:8}</style>
<polygon fill="blue" stroke="black" points="1169.25,-183.57 1106.75,-183.57 1106.75,-147.57 1169.25,-147.57 1169.25,-183.57"/>
<text xml:space="preserve" text-anchor="middle" x="1138" y="-167.32" font-family="Helvetica,sans-Serif" font-size="10.00" fill="white">lb_plugins.</text>
<text xml:space="preserve" text-anchor="middle" x="1138" y="-156.07" font-family="Helvetica,sans-Serif" font-size="10.00" fill="white">settings</text>
</g>
<!-- lb_plugins_builtin&#45;&gt;lb_plugins_settings -->
<g id="edge14" class="edge">
<title>lb_plugins_builtin&#45;&gt;lb_plugins_settings</title><style>.edge>path:hover{stroke-width:8}</style>
<path fill="none" stroke="black" d="M1198.69,-232.77C1187.72,-220.8 1173.39,-205.17 1161.41,-192.1"/>
<polygon fill="#b1ce3b" stroke="black" points="1164.29,-190.07 1154.96,-185.06 1159.13,-194.8 1164.29,-190.07"/>
</g>
<!-- lb_plugins_interface -->
<g id="node7" class="node">
<title>lb_plugins_interface</title><style>.edge>path:hover{stroke-width:8}</style>
<ellipse fill="#b8e505" stroke="black" cx="674" cy="-608.96" rx="44.19" ry="21.57"/>
<text xml:space="preserve" text-anchor="middle" x="674" y="-610.71" font-family="Helvetica,sans-Serif" font-size="10.00" fill="#000000">lb_plugins.</text>
<text xml:space="preserve" text-anchor="middle" x="674" y="-599.46" font-family="Helvetica,sans-Serif" font-size="10.00" fill="#000000">interface</text>
</g>
<!-- lb_plugins_interface&#45;&gt;lb_plugins_api -->
<g id="edge15" class="edge">
<title>lb_plugins_interface&#45;&gt;lb_plugins_api</title><style>.edge>path:hover{stroke-width:8}</style>
<path fill="none" stroke="black" d="M750,-528.83C761.39,-520.61 761.22,-514.08 774,-508.26 874.17,-462.66 945.98,-554.61 1019,-472.26 1030.36,-459.45 1017.02,-334.22 1023,-318.18 1035.96,-283.4 1069.79,-290.24 1076,-253.66"/>
<path fill="none" stroke="black" d="M1076,-251.66C1080.82,-214.15 1055.14,-198.11 1076,-166.57"/>
</g>
<!-- lb_plugins_interface&#45;&gt;lb_plugins_plugins_baseline_plugin -->
<g id="edge16" class="edge">
<title>lb_plugins_interface&#45;&gt;lb_plugins_plugins_baseline_plugin</title><style>.edge>path:hover{stroke-width:8}</style>
<path fill="none" stroke="black" d="M668.32,-587.27C660.15,-557.37 644.65,-500.36 632,-451.7"/>
<path fill="none" stroke="black" d="M632,-449.7C625.65,-433.93 595.02,-407.91 568.31,-387.39"/>
<polygon fill="#b8e505" stroke="black" points="570.73,-384.83 560.65,-381.58 566.5,-390.41 570.73,-384.83"/>
</g>
<!-- lb_plugins_interface&#45;&gt;lb_plugins_plugins_dd_plugin -->
<g id="edge17" class="edge">
<title>lb_plugins_interface&#45;&gt;lb_plugins_plugins_dd_plugin</title><style>.edge>path:hover{stroke-width:8}</style>
<path fill="none" stroke="black" d="M670.27,-587.02C668.31,-571.12 667.5,-548.99 674,-530.83"/>
</g>
<!-- lb_plugins_interface&#45;&gt;lb_plugins_plugins_fio_plugin -->
<g id="edge18" class="edge">
<title>lb_plugins_interface&#45;&gt;lb_plugins_plugins_fio_plugin</title><style>.edge>path:hover{stroke-width:8}</style>
<path fill="none" stroke="black" d="M701.87,-591.9C720.01,-581.09 743.94,-566.17 764,-551.4 775.31,-543.07 774.77,-535.54 788,-530.83"/>
</g>
<!-- lb_plugins_interface&#45;&gt;lb_plugins_plugins_phoronix_test_suite_plugin -->
<g id="edge19" class="edge">
<title>lb_plugins_interface&#45;&gt;lb_plugins_plugins_phoronix_test_suite_plugin</title><style>.edge>path:hover{stroke-width:8}</style>
<path fill="none" stroke="black" d="M630.15,-604.72C550.9,-598.19 387.63,-581.44 340,-551.4 283.81,-515.95 302.15,-474.9 254,-429.13 237.98,-413.9 218.29,-400.11 199.75,-388.75"/>
<polygon fill="#b8e505" stroke="black" points="201.58,-385.77 191.2,-383.64 197.99,-391.78 201.58,-385.77"/>
</g>
<!-- lb_plugins_interface&#45;&gt;lb_plugins_plugins_stream_plugin -->
<g id="edge20" class="edge">
<title>lb_plugins_interface&#45;&gt;lb_plugins_plugins_stream_plugin</title><style>.edge>path:hover{stroke-width:8}</style>
<path fill="none" stroke="black" d="M632,-449.7C628.28,-435.39 627.22,-419.42 627.39,-404.8"/>
<polygon fill="#b8e505" stroke="black" points="630.89,-405.05 627.72,-394.94 623.89,-404.82 630.89,-405.05"/>
</g>
<!-- lb_plugins_interface&#45;&gt;lb_plugins_plugins_sysbench_plugin -->
<g id="edge21" class="edge">
<title>lb_plugins_interface&#45;&gt;lb_plugins_plugins_sysbench_plugin</title><style>.edge>path:hover{stroke-width:8}</style>
<path fill="none" stroke="black" d="M631.19,-602.97C566.92,-594.75 449.45,-576.72 416,-551.4 367.41,-514.6 339.05,-448.38 324.55,-403.48"/>
<polygon fill="#b8e505" stroke="black" points="327.91,-402.51 321.6,-394 321.23,-404.59 327.91,-402.51"/>
</g>
<!-- lb_plugins_interface&#45;&gt;lb_plugins_plugins_unixbench_plugin -->
<g id="edge22" class="edge">
<title>lb_plugins_interface&#45;&gt;lb_plugins_plugins_unixbench_plugin</title><style>.edge>path:hover{stroke-width:8}</style>
<path fill="none" stroke="black" d="M643.48,-593.01C624.19,-582.77 599.34,-568.05 580,-551.4 526.49,-505.33 476.62,-440.2 446.97,-398.2"/>
<polygon fill="#b8e505" stroke="black" points="449.88,-396.25 441.28,-390.06 444.14,-400.26 449.88,-396.25"/>
</g>
<!-- lb_plugins_interface&#45;&gt;lb_plugins_registry -->
<g id="edge23" class="edge">
<title>lb_plugins_interface&#45;&gt;lb_plugins_registry</title><style>.edge>path:hover{stroke-width:8}</style>
<path fill="none" stroke="black" d="M750,-528.83C790.51,-497.78 766.41,-460.08 807,-429.13 858.08,-390.17 896.69,-433.08 947,-393.13 961.31,-381.76 956.89,-372.5 966,-356.65"/>
<path fill="none" stroke="black" d="M691.55,-588.74C709.83,-568.97 737.5,-539.85 750,-530.83"/>
<path fill="none" stroke="black" d="M966,-354.65C977.23,-333.43 981.9,-306.61 983.81,-285.94"/>
<polygon fill="#b8e505" stroke="black" points="987.29,-286.31 984.53,-276.08 980.31,-285.8 987.29,-286.31"/>
</g>
<!-- lb_plugins_plugin_assets -->
<g id="node8" class="node">
<title>lb_plugins_plugin_assets</title><style>.edge>path:hover{stroke-width:8}</style>
<ellipse fill="#a6c040" stroke="black" cx="101" cy="-529.83" rx="53.74" ry="21.57"/>
<text xml:space="preserve" text-anchor="middle" x="101" y="-531.58" font-family="Helvetica,sans-Serif" font-size="10.00" fill="#000000">lb_plugins.</text>
<text xml:space="preserve" text-anchor="middle" x="101" y="-520.33" font-family="Helvetica,sans-Serif" font-size="10.00" fill="#000000">plugin_assets</text>
</g>
<!-- lb_plugins_plugin_assets&#45;&gt;lb_plugins_api -->
<g id="edge24" class="edge">
<title>lb_plugins_plugin_assets&#45;&gt;lb_plugins_api</title><style>.edge>path:hover{stroke-width:8}</style>
<path fill="none" stroke="black" d="M87.07,-508.59C60.89,-467.82 10.93,-374.86 57,-318.18 145.49,-209.31 375.8,-393.61 366,-253.66"/>
<path fill="none" stroke="black" d="M366,-251.66C354.79,-103.69 916.15,-91.12 1088.41,-90.74"/>
<polygon fill="#a6c040" stroke="black" points="1088.38,-94.24 1098.38,-90.73 1088.38,-87.24 1088.38,-94.24"/>
</g>
<!-- lb_plugins_plugins -->
<g id="node9" class="node">
<title>lb_plugins_plugins</title><style>.edge>path:hover{stroke-width:8}</style>
<ellipse fill="#a9c247" stroke="black" cx="1269" cy="-165.57" rx="44.19" ry="21.57"/>
<text xml:space="preserve" text-anchor="middle" x="1269" y="-167.32" font-family="Helvetica,sans-Serif" font-size="10.00" fill="#000000">lb_plugins.</text>
<text xml:space="preserve" text-anchor="middle" x="1269" y="-156.07" font-family="Helvetica,sans-Serif" font-size="10.00" fill="#000000">plugins</text>
</g>
<!-- lb_plugins_plugins&#45;&gt;lb_plugins_api -->
<g id="edge25" class="edge">
<title>lb_plugins_plugins&#45;&gt;lb_plugins_api</title><style>.edge>path:hover{stroke-width:8}</style>
<path fill="none" stroke="black" d="M1240.57,-148.6C1222.55,-138.48 1198.94,-125.22 1178.92,-113.98"/>
<polygon fill="#a9c247" stroke="black" points="1180.87,-111.06 1170.44,-109.22 1177.44,-117.16 1180.87,-111.06"/>
</g>
<!-- lb_plugins_plugins_baseline -->
<g id="node10" class="node">
<title>lb_plugins_plugins_baseline</title><style>.edge>path:hover{stroke-width:8}</style>
<ellipse fill="#a9c247" stroke="black" cx="1322" cy="-252.66" rx="44.19" ry="29.52"/>
<text xml:space="preserve" text-anchor="middle" x="1322" y="-260.03" font-family="Helvetica,sans-Serif" font-size="10.00" fill="#000000">lb_plugins.</text>
<text xml:space="preserve" text-anchor="middle" x="1322" y="-248.78" font-family="Helvetica,sans-Serif" font-size="10.00" fill="#000000">plugins.</text>
<text xml:space="preserve" text-anchor="middle" x="1322" y="-237.53" font-family="Helvetica,sans-Serif" font-size="10.00" fill="#000000">baseline</text>
</g>
<!-- lb_plugins_plugins_baseline&#45;&gt;lb_plugins_api -->
<g id="edge26" class="edge">
<title>lb_plugins_plugins_baseline&#45;&gt;lb_plugins_api</title><style>.edge>path:hover{stroke-width:8}</style>
<path fill="none" stroke="black" d="M1354.37,-232.26C1361.03,-228.84 1368.11,-225.59 1375,-223.13 1499.51,-178.74 1753.61,-266.43 1667,-166.57"/>
<path fill="none" stroke="black" d="M1667,-164.57C1635.7,-128.48 1312.03,-102.82 1186.95,-94.19"/>
<polygon fill="#a9c247" stroke="black" points="1187.56,-90.72 1177.35,-93.53 1187.08,-97.7 1187.56,-90.72"/>
</g>
<!-- lb_plugins_plugins_baseline_plugin&#45;&gt;lb_plugins_api -->
<g id="edge27" class="edge">
<title>lb_plugins_plugins_baseline_plugin&#45;&gt;lb_plugins_api</title><style>.edge>path:hover{stroke-width:8}</style>
<path fill="none" stroke="black" d="M492.28,-331C485.92,-326.66 479.29,-322.23 473,-318.18 426.33,-288.08 369.88,-309.05 366,-253.66"/>
</g>
<!-- lb_plugins_plugins_dd -->
<g id="node12" class="node">
<title>lb_plugins_plugins_dd</title><style>.edge>path:hover{stroke-width:8}</style>
<ellipse fill="#a9c247" stroke="black" cx="1428" cy="-252.66" rx="44.19" ry="29.52"/>
<text xml:space="preserve" text-anchor="middle" x="1428" y="-260.03" font-family="Helvetica,sans-Serif" font-size="10.00" fill="#000000">lb_plugins.</text>
<text xml:space="preserve" text-anchor="middle" x="1428" y="-248.78" font-family="Helvetica,sans-Serif" font-size="10.00" fill="#000000">plugins.</text>
<text xml:space="preserve" text-anchor="middle" x="1428" y="-237.53" font-family="Helvetica,sans-Serif" font-size="10.00" fill="#000000">dd</text>
</g>
<!-- lb_plugins_plugins_dd&#45;&gt;lb_plugins_api -->
<g id="edge28" class="edge">
<title>lb_plugins_plugins_dd&#45;&gt;lb_plugins_api</title><style>.edge>path:hover{stroke-width:8}</style>
<path fill="none" stroke="black" d="M1460.87,-232.67C1467.43,-229.25 1474.34,-225.9 1481,-223.13 1560.77,-189.93 1723.61,-231.84 1667,-166.57"/>
</g>
<!-- lb_plugins_plugins_dd_plugin&#45;&gt;lb_plugins_api -->
<g id="edge29" class="edge">
<title>lb_plugins_plugins_dd_plugin&#45;&gt;lb_plugins_api</title><style>.edge>path:hover{stroke-width:8}</style>
<path fill="none" stroke="black" d="M705.83,-329.52C699.22,-325.22 692.1,-321.19 685,-318.18 618.42,-289.93 371.05,-325.8 366,-253.66"/>
</g>
<!-- lb_plugins_plugins_fio -->
<g id="node14" class="node">
<title>lb_plugins_plugins_fio</title><style>.edge>path:hover{stroke-width:8}</style>
<ellipse fill="#a9c247" stroke="black" cx="1534" cy="-252.66" rx="44.19" ry="29.52"/>
<text xml:space="preserve" text-anchor="middle" x="1534" y="-260.03" font-family="Helvetica,sans-Serif" font-size="10.00" fill="#000000">lb_plugins.</text>
<text xml:space="preserve" text-anchor="middle" x="1534" y="-248.78" font-family="Helvetica,sans-Serif" font-size="10.00" fill="#000000">plugins.</text>
<text xml:space="preserve" text-anchor="middle" x="1534" y="-237.53" font-family="Helvetica,sans-Serif" font-size="10.00" fill="#000000">fio</text>
</g>
<!-- lb_plugins_plugins_fio&#45;&gt;lb_plugins_api -->
<g id="edge30" class="edge">
<title>lb_plugins_plugins_fio&#45;&gt;lb_plugins_api</title><style>.edge>path:hover{stroke-width:8}</style>
<path fill="none" stroke="black" d="M1567.05,-232.65C1607.7,-208.98 1670.92,-171.08 1667,-166.57"/>
</g>
<!-- lb_plugins_plugins_fio_plugin&#45;&gt;lb_plugins_api -->
<g id="edge31" class="edge">
<title>lb_plugins_plugins_fio_plugin&#45;&gt;lb_plugins_api</title><style>.edge>path:hover{stroke-width:8}</style>
<path fill="none" stroke="black" d="M1073.06,-317.94C1072.25,-298.67 1072.42,-274.75 1076,-253.66"/>
</g>
<!-- lb_plugins_plugins_phoronix_test_suite -->
<g id="node16" class="node">
<title>lb_plugins_plugins_phoronix_test_suite</title><style>.edge>path:hover{stroke-width:8}</style>
<ellipse fill="#a9c247" stroke="black" cx="1667" cy="-252.66" rx="71.24" ry="29.52"/>
<text xml:space="preserve" text-anchor="middle" x="1667" y="-260.03" font-family="Helvetica,sans-Serif" font-size="10.00" fill="#000000">lb_plugins.</text>
<text xml:space="preserve" text-anchor="middle" x="1667" y="-248.78" font-family="Helvetica,sans-Serif" font-size="10.00" fill="#000000">plugins.</text>
<text xml:space="preserve" text-anchor="middle" x="1667" y="-237.53" font-family="Helvetica,sans-Serif" font-size="10.00" fill="#000000">phoronix_test_suite</text>
</g>
<!-- lb_plugins_plugins_phoronix_test_suite&#45;&gt;lb_plugins_api -->
<g id="edge32" class="edge">
<title>lb_plugins_plugins_phoronix_test_suite&#45;&gt;lb_plugins_api</title><style>.edge>path:hover{stroke-width:8}</style>
<path fill="none" stroke="black" d="M1675.68,-223.1C1679.34,-204.81 1680.16,-181.74 1667,-166.57"/>
</g>
<!-- lb_plugins_plugins_phoronix_test_suite_plugin&#45;&gt;lb_plugins_api -->
<g id="edge33" class="edge">
<title>lb_plugins_plugins_phoronix_test_suite_plugin&#45;&gt;lb_plugins_api</title><style>.edge>path:hover{stroke-width:8}</style>
<path fill="none" stroke="black" d="M195.22,-331.15C262.54,-302.8 366.33,-258.31 366,-253.66"/>
</g>
<!-- lb_plugins_plugins_stream -->
<g id="node18" class="node">
<title>lb_plugins_plugins_stream</title><style>.edge>path:hover{stroke-width:8}</style>
<ellipse fill="#a9c247" stroke="black" cx="1800" cy="-252.66" rx="44.19" ry="29.52"/>
<text xml:space="preserve" text-anchor="middle" x="1800" y="-260.03" font-family="Helvetica,sans-Serif" font-size="10.00" fill="#000000">lb_plugins.</text>
<text xml:space="preserve" text-anchor="middle" x="1800" y="-248.78" font-family="Helvetica,sans-Serif" font-size="10.00" fill="#000000">plugins.</text>
<text xml:space="preserve" text-anchor="middle" x="1800" y="-237.53" font-family="Helvetica,sans-Serif" font-size="10.00" fill="#000000">stream</text>
</g>
<!-- lb_plugins_plugins_stream&#45;&gt;lb_plugins_api -->
<g id="edge34" class="edge">
<title>lb_plugins_plugins_stream&#45;&gt;lb_plugins_api</title><style>.edge>path:hover{stroke-width:8}</style>
<path fill="none" stroke="black" d="M1766.52,-233.17C1732.17,-213.69 1681.73,-183.55 1667,-166.57"/>
</g>
<!-- lb_plugins_plugins_stream_plugin&#45;&gt;lb_plugins_api -->
<g id="edge35" class="edge">
<title>lb_plugins_plugins_stream_plugin&#45;&gt;lb_plugins_api</title><style>.edge>path:hover{stroke-width:8}</style>
<path fill="none" stroke="black" d="M599.31,-329.86C592.79,-325.59 585.84,-321.47 579,-318.18 489.87,-275.29 372.91,-352.33 366,-253.66"/>
</g>
<!-- lb_plugins_plugins_sysbench -->
<g id="node20" class="node">
<title>lb_plugins_plugins_sysbench</title><style>.edge>path:hover{stroke-width:8}</style>
<ellipse fill="#a9c247" stroke="black" cx="1906" cy="-252.66" rx="44.19" ry="29.52"/>
<text xml:space="preserve" text-anchor="middle" x="1906" y="-260.03" font-family="Helvetica,sans-Serif" font-size="10.00" fill="#000000">lb_plugins.</text>
<text xml:space="preserve" text-anchor="middle" x="1906" y="-248.78" font-family="Helvetica,sans-Serif" font-size="10.00" fill="#000000">plugins.</text>
<text xml:space="preserve" text-anchor="middle" x="1906" y="-237.53" font-family="Helvetica,sans-Serif" font-size="10.00" fill="#000000">sysbench</text>
</g>
<!-- lb_plugins_plugins_sysbench&#45;&gt;lb_plugins_api -->
<g id="edge36" class="edge">
<title>lb_plugins_plugins_sysbench&#45;&gt;lb_plugins_api</title><style>.edge>path:hover{stroke-width:8}</style>
<path fill="none" stroke="black" d="M1873.13,-232.67C1866.57,-229.25 1859.66,-225.9 1853,-223.13 1773.23,-189.93 1723.61,-231.84 1667,-166.57"/>
</g>
<!-- lb_plugins_plugins_sysbench_plugin&#45;&gt;lb_plugins_api -->
<g id="edge37" class="edge">
<title>lb_plugins_plugins_sysbench_plugin&#45;&gt;lb_plugins_api</title><style>.edge>path:hover{stroke-width:8}</style>
<path fill="none" stroke="black" d="M338.7,-325.38C353.2,-306.27 367.85,-280.04 366,-253.66"/>
</g>
<!-- lb_plugins_plugins_unixbench -->
<g id="node22" class="node">
<title>lb_plugins_plugins_unixbench</title><style>.edge>path:hover{stroke-width:8}</style>
<ellipse fill="#a9c247" stroke="black" cx="2012" cy="-252.66" rx="44.19" ry="29.52"/>
<text xml:space="preserve" text-anchor="middle" x="2012" y="-260.03" font-family="Helvetica,sans-Serif" font-size="10.00" fill="#000000">lb_plugins.</text>
<text xml:space="preserve" text-anchor="middle" x="2012" y="-248.78" font-family="Helvetica,sans-Serif" font-size="10.00" fill="#000000">plugins.</text>
<text xml:space="preserve" text-anchor="middle" x="2012" y="-237.53" font-family="Helvetica,sans-Serif" font-size="10.00" fill="#000000">unixbench</text>
</g>
<!-- lb_plugins_plugins_unixbench&#45;&gt;lb_plugins_api -->
<g id="edge38" class="edge">
<title>lb_plugins_plugins_unixbench&#45;&gt;lb_plugins_api</title><style>.edge>path:hover{stroke-width:8}</style>
<path fill="none" stroke="black" d="M1979.63,-232.26C1972.97,-228.84 1965.89,-225.59 1959,-223.13 1834.49,-178.74 1753.61,-266.43 1667,-166.57"/>
</g>
<!-- lb_plugins_plugins_unixbench_plugin&#45;&gt;lb_plugins_api -->
<g id="edge39" class="edge">
<title>lb_plugins_plugins_unixbench_plugin&#45;&gt;lb_plugins_api</title><style>.edge>path:hover{stroke-width:8}</style>
<path fill="none" stroke="black" d="M394.43,-324C381.44,-304.98 367.8,-279.33 366,-253.66"/>
</g>
<!-- lb_plugins_registry&#45;&gt;lb_plugins_api -->
<g id="edge40" class="edge">
<title>lb_plugins_registry&#45;&gt;lb_plugins_api</title><style>.edge>path:hover{stroke-width:8}</style>
<path fill="none" stroke="black" d="M1009.28,-234.2C1029.56,-218.52 1057.98,-193.81 1076,-166.57"/>
<path fill="none" stroke="black" d="M1076,-164.57C1087.19,-147.65 1101.71,-130.24 1113.88,-116.6"/>
<polygon fill="#98b620" stroke="black" points="1116.34,-119.1 1120.47,-109.34 1111.16,-114.39 1116.34,-119.1"/>
</g>
<!-- lb_plugins_registry&#45;&gt;lb_plugins_settings -->
<g id="edge41" class="edge">
<title>lb_plugins_registry&#45;&gt;lb_plugins_settings</title><style>.edge>path:hover{stroke-width:8}</style>
<path fill="none" stroke="black" d="M1013.42,-235.85C1036.87,-222.81 1070.45,-204.13 1096.84,-189.46"/>
<polygon fill="#98b620" stroke="black" points="1098.21,-192.7 1105.25,-184.78 1094.81,-186.58 1098.21,-192.7"/>
</g>
<!-- lb_plugins_table -->
<g id="node26" class="node">
<title>lb_plugins_table</title><style>.edge>path:hover{stroke-width:8}</style>
<polygon fill="blue" stroke="black" points="1032.25,-183.57 969.75,-183.57 969.75,-147.57 1032.25,-147.57 1032.25,-183.57"/>
<text xml:space="preserve" text-anchor="middle" x="1001" y="-167.32" font-family="Helvetica,sans-Serif" font-size="10.00" fill="white">lb_plugins.</text>
<text xml:space="preserve" text-anchor="middle" x="1001" y="-156.07" font-family="Helvetica,sans-Serif" font-size="10.00" fill="white">table</text>
</g>
<!-- lb_plugins_registry&#45;&gt;lb_plugins_table -->
<g id="edge42" class="edge">
<title>lb_plugins_registry&#45;&gt;lb_plugins_table</title><style>.edge>path:hover{stroke-width:8}</style>
<path fill="none" stroke="black" d="M988.87,-231.06C990.91,-220.21 993.44,-206.75 995.67,-194.93"/>
<polygon fill="#98b620" stroke="black" points="999.07,-195.78 997.48,-185.31 992.19,-194.49 999.07,-195.78"/>
</g>
<!-- lb_plugins_settings&#45;&gt;lb_plugins_api -->
<g id="edge43" class="edge">
<title>lb_plugins_settings&#45;&gt;lb_plugins_api</title><style>.edge>path:hover{stroke-width:8}</style>
<path fill="none" stroke="black" d="M1138,-147.13C1138,-138.89 1138,-128.83 1138,-119.51"/>
<polygon fill="blue" stroke="black" points="1141.5,-119.82 1138,-109.82 1134.5,-119.82 1141.5,-119.82"/>
</g>
<!-- lb_plugins_table&#45;&gt;lb_plugins_api -->
<g id="edge44" class="edge">
<title>lb_plugins_table&#45;&gt;lb_plugins_api</title><style>.edge>path:hover{stroke-width:8}</style>
<path fill="none" stroke="black" d="M1032.43,-147.69C1051.22,-137.6 1075.33,-124.65 1095.76,-113.68"/>
<polygon fill="blue" stroke="black" points="1097.28,-116.84 1104.43,-109.03 1093.97,-110.67 1097.28,-116.84"/>
</g>
<!-- lb_plugins_user_plugins -->
<g id="node27" class="node">
<title>lb_plugins_user_plugins</title><style>.edge>path:hover{stroke-width:8}</style>
<ellipse fill="#a9c247" stroke="black" cx="888" cy="-355.65" rx="50.03" ry="21.57"/>
<text xml:space="preserve" text-anchor="middle" x="888" y="-357.4" font-family="Helvetica,sans-Serif" font-size="10.00" fill="#000000">lb_plugins.</text>
<text xml:space="preserve" text-anchor="middle" x="888" y="-346.15" font-family="Helvetica,sans-Serif" font-size="10.00" fill="#000000">user_plugins</text>
</g>
<!-- lb_plugins_user_plugins&#45;&gt;lb_plugins_registry -->
<g id="edge45" class="edge">
<title>lb_plugins_user_plugins&#45;&gt;lb_plugins_registry</title><style>.edge>path:hover{stroke-width:8}</style>
<path fill="none" stroke="black" d="M906.7,-335.18C921.56,-319.71 942.5,-297.9 958.99,-280.73"/>
<polygon fill="#a9c247" stroke="black" points="961.23,-283.45 965.64,-273.82 956.18,-278.61 961.23,-283.45"/>
</g>
<!-- pandas -->
<g id="node28" class="node">
<title>pandas</title><style>.edge>path:hover{stroke-width:8}</style>
<ellipse fill="#26d96e" stroke="black" cx="826" cy="-721.53" rx="28.11" ry="18"/>
<text xml:space="preserve" text-anchor="middle" x="826" y="-717.66" font-family="Helvetica,sans-Serif" font-size="10.00" fill="#000000">pandas</text>
</g>
<!-- pandas&#45;&gt;lb_plugins_interface -->
<g id="edge46" class="edge">
<title>pandas&#45;&gt;lb_plugins_interface</title><style>.edge>path:hover{stroke-width:8}</style>
<path fill="none" stroke="black" d="M807.97,-707.41C783.17,-689.37 738.09,-656.58 707.12,-634.06"/>
<polygon fill="#26d96e" stroke="black" points="709.38,-631.37 699.23,-628.32 705.26,-637.03 709.38,-631.37"/>
</g>
<!-- pandas&#45;&gt;lb_plugins_plugins_fio_plugin -->
<g id="edge47" class="edge">
<title>pandas&#45;&gt;lb_plugins_plugins_fio_plugin</title><style>.edge>path:hover{stroke-width:8}</style>
<path fill="none" stroke="black" d="M854.23,-719.55C926.21,-716.5 1114.24,-705.07 1162,-667.53 1183.79,-650.4 1186,-637.68 1186,-609.96 1186,-609.96 1186,-609.96 1186,-528.83 1186,-474.22 1146.22,-423.02 1114.5,-390.89"/>
<polygon fill="#26d96e" stroke="black" points="1117.3,-388.73 1107.72,-384.2 1112.38,-393.71 1117.3,-388.73"/>
</g>
<!-- pandas&#45;&gt;lb_plugins_plugins_stream_plugin -->
<g id="edge48" class="edge">
<title>pandas&#45;&gt;lb_plugins_plugins_stream_plugin</title><style>.edge>path:hover{stroke-width:8}</style>
<path fill="none" stroke="black" d="M824.4,-703.36C821.67,-677.65 815.09,-627.84 802,-587.4 776.29,-507.95 711.24,-433.51 669.47,-391.65"/>
<polygon fill="#26d96e" stroke="black" points="672.09,-389.33 662.52,-384.79 667.17,-394.31 672.09,-389.33"/>
</g>
<!-- pydantic -->
<g id="node29" class="node">
<title>pydantic</title><style>.edge>path:hover{stroke-width:8}</style>
<ellipse fill="#0667f9" stroke="black" cx="691" cy="-721.53" rx="31.21" ry="18"/>
<text xml:space="preserve" text-anchor="middle" x="691" y="-717.66" font-family="Helvetica,sans-Serif" font-size="10.00" fill="#ffffff">pydantic</text>
</g>
<!-- pydantic&#45;&gt;lb_plugins_interface -->
<g id="edge49" class="edge">
<title>pydantic&#45;&gt;lb_plugins_interface</title><style>.edge>path:hover{stroke-width:8}</style>
<path fill="none" stroke="black" d="M594,-666.53C589.47,-647.01 606.06,-633.47 625.28,-624.55"/>
<polygon fill="#0667f9" stroke="black" points="626.51,-627.83 634.4,-620.76 623.82,-621.37 626.51,-627.83"/>
</g>
<!-- pydantic&#45;&gt;lb_plugins_plugin_assets -->
<g id="edge50" class="edge">
<title>pydantic&#45;&gt;lb_plugins_plugin_assets</title><style>.edge>path:hover{stroke-width:8}</style>
<path fill="none" stroke="black" d="M278,-607.96C277.16,-581.35 209.22,-558.07 157.77,-544.23"/>
<polygon fill="#0667f9" stroke="black" points="158.77,-540.87 148.2,-541.72 156.99,-547.64 158.77,-540.87"/>
<path fill="none" stroke="black" d="M659.83,-718.89C564.08,-712.99 280.49,-688.88 278,-609.96"/>
</g>
<!-- pydantic&#45;&gt;lb_plugins_plugins_baseline_plugin -->
<g id="edge51" class="edge">
<title>pydantic&#45;&gt;lb_plugins_plugins_baseline_plugin</title><style>.edge>path:hover{stroke-width:8}</style>
<path fill="none" stroke="black" d="M430,-528.83C452.8,-483.99 481.06,-433.88 501,-399.33"/>
<polygon fill="#0667f9" stroke="black" points="503.91,-401.29 505.89,-390.89 497.85,-397.79 503.91,-401.29"/>
<path fill="none" stroke="black" d="M278,-607.96C272.53,-596.79 286.83,-594.56 297,-587.4 349.52,-550.41 387.94,-579.38 430,-530.83"/>
</g>
<!-- pydantic&#45;&gt;lb_plugins_plugins_dd_plugin -->
<g id="edge52" class="edge">
<title>pydantic&#45;&gt;lb_plugins_plugins_dd_plugin</title><style>.edge>path:hover{stroke-width:8}</style>
<path fill="none" stroke="black" d="M714.48,-709.1C747.53,-691.21 802.23,-654.07 788,-609.96"/>
<path fill="none" stroke="black" d="M788,-607.96C777.71,-547.66 646.98,-585.72 674,-530.83"/>
</g>
<!-- pydantic&#45;&gt;lb_plugins_plugins_fio_plugin -->
<g id="edge53" class="edge">
<title>pydantic&#45;&gt;lb_plugins_plugins_fio_plugin</title><style>.edge>path:hover{stroke-width:8}</style>
<path fill="none" stroke="black" d="M788,-607.96C782.24,-574.17 755.78,-542.53 788,-530.83"/>
</g>
<!-- pydantic&#45;&gt;lb_plugins_plugins_phoronix_test_suite_plugin -->
<g id="edge54" class="edge">
<title>pydantic&#45;&gt;lb_plugins_plugins_phoronix_test_suite_plugin</title><style>.edge>path:hover{stroke-width:8}</style>
<path fill="none" stroke="black" d="M278,-607.96C264.89,-581.2 256.98,-577.16 242,-551.4 212.88,-501.32 182.16,-442.32 161.93,-402.5"/>
<polygon fill="#0667f9" stroke="black" points="165.09,-400.99 157.45,-393.65 158.85,-404.15 165.09,-400.99"/>
</g>
<!-- pydantic&#45;&gt;lb_plugins_plugins_stream_plugin -->
<g id="edge55" class="edge">
<title>pydantic&#45;&gt;lb_plugins_plugins_stream_plugin</title><style>.edge>path:hover{stroke-width:8}</style>
<path fill="none" stroke="black" d="M661.01,-715.88C635.08,-709.91 600.74,-696.6 594,-667.53"/>
<path fill="none" stroke="black" d="M594,-666.53C580.38,-607.78 559.81,-580.51 594,-530.83"/>
</g>
<!-- pydantic&#45;&gt;lb_plugins_plugins_sysbench_plugin -->
<g id="edge56" class="edge">
<title>pydantic&#45;&gt;lb_plugins_plugins_sysbench_plugin</title><style>.edge>path:hover{stroke-width:8}</style>
<path fill="none" stroke="black" d="M278,-528.83C266.98,-485.9 279.46,-436.17 292.29,-401.23"/>
<polygon fill="#0667f9" stroke="black" points="295.4,-402.89 295.72,-392.3 288.87,-400.38 295.4,-402.89"/>
<path fill="none" stroke="black" d="M278,-607.96C262.92,-577.18 286.3,-564.09 278,-530.83"/>
</g>
<!-- pydantic&#45;&gt;lb_plugins_plugins_unixbench_plugin -->
<g id="edge57" class="edge">
<title>pydantic&#45;&gt;lb_plugins_plugins_unixbench_plugin</title><style>.edge>path:hover{stroke-width:8}</style>
<path fill="none" stroke="black" d="M354,-528.83C362.91,-483.66 382.39,-434.79 397.71,-400.7"/>
<polygon fill="#0667f9" stroke="black" points="400.71,-402.54 401.68,-391.99 394.35,-399.63 400.71,-402.54"/>
<path fill="none" stroke="black" d="M278,-607.96C256.83,-564.74 337.92,-576.19 354,-530.83"/>
</g>
<!-- pydantic&#45;&gt;lb_plugins_settings -->
<g id="edge58" class="edge">
<title>pydantic&#45;&gt;lb_plugins_settings</title><style>.edge>path:hover{stroke-width:8}</style>
<path fill="none" stroke="black" d="M720.63,-714.96C821.9,-695.71 1148,-632.03 1148,-609.96 1148,-609.96 1148,-609.96 1148,-449.7 1148,-356.55 1142.53,-246.27 1139.68,-195.18"/>
<polygon fill="#0667f9" stroke="black" points="1143.18,-195.09 1139.12,-185.31 1136.19,-195.49 1143.18,-195.09"/>
</g>
<!-- yaml -->
<g id="node30" class="node">
<title>yaml</title><style>.edge>path:hover{stroke-width:8}</style>
<ellipse fill="#a947c2" stroke="black" cx="218" cy="-721.53" rx="27" ry="18"/>
<text xml:space="preserve" text-anchor="middle" x="218" y="-717.66" font-family="Helvetica,sans-Serif" font-size="10.00" fill="#ffffff">yaml</text>
</g>
<!-- yaml&#45;&gt;lb_plugins_interface -->
<g id="edge59" class="edge">
<title>yaml&#45;&gt;lb_plugins_interface</title><style>.edge>path:hover{stroke-width:8}</style>
<path fill="none" stroke="black" d="M243.17,-714.43C315.81,-696.81 526.86,-645.64 624,-622.09"/>
<polygon fill="#a947c2" stroke="black" points="624.62,-625.54 633.51,-619.78 622.97,-618.74 624.62,-625.54"/>
</g>
<!-- yaml&#45;&gt;lb_plugins_plugins_phoronix_test_suite_plugin -->
<g id="edge60" class="edge">
<title>yaml&#45;&gt;lb_plugins_plugins_phoronix_test_suite_plugin</title><style>.edge>path:hover{stroke-width:8}</style>
<path fill="none" stroke="black" d="M190.83,-719.12C132.39,-714.48 0,-694.63 0,-609.96 0,-609.96 0,-609.96 0,-528.83 0,-472.04 46.35,-423.43 85.51,-392.48"/>
<polygon fill="#a947c2" stroke="black" points="87.26,-395.56 93.05,-386.69 82.99,-390.01 87.26,-395.56"/>
</g>
</g>
</svg>
