<?xml version="1.0" encoding="UTF-8" standalone="no"?>
<!DOCTYPE svg PUBLIC "-//W3C//DTD SVG 1.1//EN"
 "http://www.w3.org/Graphics/SVG/1.1/DTD/svg11.dtd">
<!-- Generated by graphviz version 14.1.1 (20251213.1925)
 -->
<!-- Title: G Pages: 1 -->
<svg width="893pt" height="792pt"
 viewBox="0.00 0.00 893.00 792.00" xmlns="http://www.w3.org/2000/svg" xmlns:xlink="http://www.w3.org/1999/xlink">
<g id="graph0" class="graph" transform="scale(1 1) rotate(0) translate(4 787.92)">
<title>G</title><style>.edge>path:hover{stroke-width:8}</style>
<polygon fill="white" stroke="none" points="-4,4 -4,-787.92 889.24,-787.92 889.24,4 -4,4"/>
<!-- lb_common -->
<g id="node1" class="node">
<title>lb_common</title><style>.edge>path:hover{stroke-width:8}</style>
<polygon fill="blue" stroke="black" points="547.09,-36 480.84,-36 480.84,0 547.09,0 547.09,-36"/>
<text xml:space="preserve" text-anchor="middle" x="513.97" y="-14.12" font-family="Helvetica,sans-Serif" font-size="10.00" fill="white">lb_common</text>
</g>
<!-- lb_common_api -->
<g id="node2" class="node">
<title>lb_common_api</title><style>.edge>path:hover{stroke-width:8}</style>
<polygon fill="blue" stroke="black" points="554.97,-108 472.97,-108 472.97,-72 554.97,-72 554.97,-108"/>
<text xml:space="preserve" text-anchor="middle" x="513.97" y="-86.12" font-family="Helvetica,sans-Serif" font-size="10.00" fill="white">lb_common.api</text>
</g>
<!-- lb_common_api&#45;&gt;lb_common -->
<g id="edge1" class="edge">
<title>lb_common_api&#45;&gt;lb_common</title><style>.edge>path:hover{stroke-width:8}</style>
<path fill="none" stroke="black" d="M513.97,-71.7C513.97,-64.41 513.97,-55.73 513.97,-47.54"/>
<polygon fill="blue" stroke="black" points="517.47,-47.62 513.97,-37.62 510.47,-47.62 517.47,-47.62"/>
</g>
<!-- lb_common_config -->
<g id="node3" class="node">
<title>lb_common_config</title><style>.edge>path:hover{stroke-width:8}</style>
<ellipse fill="#ce3b3b" stroke="black" cx="48.97" cy="-433.4" rx="48.97" ry="21.57"/>
<text xml:space="preserve" text-anchor="middle" x="48.97" y="-435.15" font-family="Helvetica,sans-Serif" font-size="10.00" fill="#ffffff">lb_common.</text>
<text xml:space="preserve" text-anchor="middle" x="48.97" y="-423.9" font-family="Helvetica,sans-Serif" font-size="10.00" fill="#ffffff">config</text>
</g>
<!-- lb_common_config&#45;&gt;lb_common_api -->
<g id="edge2" class="edge">
<title>lb_common_config&#45;&gt;lb_common_api</title><style>.edge>path:hover{stroke-width:8}</style>
<path fill="none" stroke="black" d="M203.97,-251.66C226.79,-206.38 249.12,-206.81 279.97,-166.57"/>
<path fill="none" stroke="black" d="M279.97,-164.57C287.54,-154.69 288.25,-150.33 298.97,-144 349.22,-114.33 415.46,-101.21 461.07,-95.45"/>
<polygon fill="#ce3b3b" stroke="black" points="461.46,-98.93 470.98,-94.28 460.64,-91.98 461.46,-98.93"/>
<path fill="none" stroke="black" d="M165.97,-338.05C195.67,-309.59 185.45,-290.39 203.97,-253.66"/>
<path fill="none" stroke="black" d="M74.3,-414.6C98.8,-396.89 136.44,-368.34 165.97,-340.05"/>
</g>
<!-- lb_common_logs_core -->
<g id="node8" class="node">
<title>lb_common_logs_core</title><style>.edge>path:hover{stroke-width:8}</style>
<polygon fill="blue" stroke="black" points="314.59,-273.53 245.34,-273.53 245.34,-231.78 314.59,-231.78 314.59,-273.53"/>
<text xml:space="preserve" text-anchor="middle" x="279.97" y="-260.03" font-family="Helvetica,sans-Serif" font-size="10.00" fill="white">lb_common.</text>
<text xml:space="preserve" text-anchor="middle" x="279.97" y="-248.78" font-family="Helvetica,sans-Serif" font-size="10.00" fill="white">logs.</text>
<text xml:space="preserve" text-anchor="middle" x="279.97" y="-237.53" font-family="Helvetica,sans-Serif" font-size="10.00" fill="white">core</text>
</g>
<!-- lb_common_config&#45;&gt;lb_common_logs_core -->
<g id="edge3" class="edge">
<title>lb_common_config&#45;&gt;lb_common_logs_core</title><style>.edge>path:hover{stroke-width:8}</style>
<path fill="none" stroke="black" d="M165.97,-338.05C188.37,-316.59 216.34,-295.81 238.96,-280.24"/>
<polygon fill="#ce3b3b" stroke="black" points="240.74,-283.26 247.05,-274.75 236.81,-277.47 240.74,-283.26"/>
</g>
<!-- lb_common_config_env -->
<g id="node4" class="node">
<title>lb_common_config_env</title><style>.edge>path:hover{stroke-width:8}</style>
<ellipse fill="#ce3b3b" stroke="black" cx="164.97" cy="-433.4" rx="48.97" ry="29.52"/>
<text xml:space="preserve" text-anchor="middle" x="164.97" y="-440.78" font-family="Helvetica,sans-Serif" font-size="10.00" fill="#ffffff">lb_common.</text>
<text xml:space="preserve" text-anchor="middle" x="164.97" y="-429.53" font-family="Helvetica,sans-Serif" font-size="10.00" fill="#ffffff">config.</text>
<text xml:space="preserve" text-anchor="middle" x="164.97" y="-418.28" font-family="Helvetica,sans-Serif" font-size="10.00" fill="#ffffff">env</text>
</g>
<!-- lb_common_config_env&#45;&gt;lb_common_api -->
<g id="edge4" class="edge">
<title>lb_common_config_env&#45;&gt;lb_common_api</title><style>.edge>path:hover{stroke-width:8}</style>
<path fill="none" stroke="black" d="M203.97,-338.05C218.68,-303.55 187.08,-287.15 203.97,-253.66"/>
<path fill="none" stroke="black" d="M176.69,-404.5C184.41,-386.16 194.75,-361.66 203.97,-340.05"/>
</g>
<!-- lb_common_config_env&#45;&gt;lb_common_logs_core -->
<g id="edge5" class="edge">
<title>lb_common_config_env&#45;&gt;lb_common_logs_core</title><style>.edge>path:hover{stroke-width:8}</style>
<path fill="none" stroke="black" d="M203.97,-338.05C213.26,-316.28 230.55,-296.36 246.3,-281.35"/>
<polygon fill="#ce3b3b" stroke="black" points="248.23,-284.33 253.22,-274.99 243.49,-279.17 248.23,-284.33"/>
</g>
<!-- lb_common_discovery -->
<g id="node5" class="node">
<title>lb_common_discovery</title><style>.edge>path:hover{stroke-width:8}</style>
<ellipse fill="#c24747" stroke="black" cx="356.97" cy="-165.57" rx="48.97" ry="21.57"/>
<text xml:space="preserve" text-anchor="middle" x="356.97" y="-167.32" font-family="Helvetica,sans-Serif" font-size="10.00" fill="#ffffff">lb_common.</text>
<text xml:space="preserve" text-anchor="middle" x="356.97" y="-156.07" font-family="Helvetica,sans-Serif" font-size="10.00" fill="#ffffff">discovery</text>
</g>
<!-- lb_common_discovery&#45;&gt;lb_common_api -->
<g id="edge6" class="edge">
<title>lb_common_discovery&#45;&gt;lb_common_api</title><style>.edge>path:hover{stroke-width:8}</style>
<path fill="none" stroke="black" d="M389.88,-149.14C412.07,-138.75 441.69,-124.87 466.43,-113.28"/>
<polygon fill="#c24747" stroke="black" points="467.75,-116.52 475.32,-109.11 464.78,-110.18 467.75,-116.52"/>
</g>
<!-- lb_common_discovery_entrypoints -->
<g id="node6" class="node">
<title>lb_common_discovery_entrypoints</title><style>.edge>path:hover{stroke-width:8}</style>
<ellipse fill="#c24747" stroke="black" cx="433.97" cy="-252.66" rx="48.97" ry="29.52"/>
<text xml:space="preserve" text-anchor="middle" x="433.97" y="-260.03" font-family="Helvetica,sans-Serif" font-size="10.00" fill="#ffffff">lb_common.</text>
<text xml:space="preserve" text-anchor="middle" x="433.97" y="-248.78" font-family="Helvetica,sans-Serif" font-size="10.00" fill="#ffffff">discovery.</text>
<text xml:space="preserve" text-anchor="middle" x="433.97" y="-237.53" font-family="Helvetica,sans-Serif" font-size="10.00" fill="#ffffff">entrypoints</text>
</g>
<!-- lb_common_discovery_entrypoints&#45;&gt;lb_common_api -->
<g id="edge7" class="edge">
<title>lb_common_discovery_entrypoints&#45;&gt;lb_common_api</title><style>.edge>path:hover{stroke-width:8}</style>
<path fill="none" stroke="black" d="M433.89,-222.93C435,-200.17 439.22,-168.28 452.97,-144 459.09,-133.17 468.29,-123.49 477.7,-115.46"/>
<polygon fill="#c24747" stroke="black" points="479.88,-118.19 485.51,-109.22 475.52,-112.72 479.88,-118.19"/>
</g>
<!-- lb_common_logs -->
<g id="node7" class="node">
<title>lb_common_logs</title><style>.edge>path:hover{stroke-width:8}</style>
<ellipse fill="#db2f2f" stroke="black" cx="513.97" cy="-165.57" rx="51.63" ry="18"/>
<text xml:space="preserve" text-anchor="middle" x="513.97" y="-161.69" font-family="Helvetica,sans-Serif" font-size="10.00" fill="#ffffff">lb_common.logs</text>
</g>
<!-- lb_common_logs&#45;&gt;lb_common_api -->
<g id="edge8" class="edge">
<title>lb_common_logs&#45;&gt;lb_common_api</title><style>.edge>path:hover{stroke-width:8}</style>
<path fill="none" stroke="black" d="M513.97,-147.13C513.97,-138.89 513.97,-128.83 513.97,-119.51"/>
<polygon fill="#db2f2f" stroke="black" points="517.47,-119.82 513.97,-109.82 510.47,-119.82 517.47,-119.82"/>
</g>
<!-- lb_common_logs_core&#45;&gt;lb_common_api -->
<g id="edge9" class="edge">
<title>lb_common_logs_core&#45;&gt;lb_common_api</title><style>.edge>path:hover{stroke-width:8}</style>
<path fill="none" stroke="black" d="M273.64,-231.58C269.05,-212.81 265.86,-184.97 279.97,-166.57"/>
</g>
<!-- lb_common_logs_handlers -->
<g id="node9" class="node">
<title>lb_common_logs_handlers</title><style>.edge>path:hover{stroke-width:8}</style>
<polygon fill="blue" stroke="black" points="377.59,-359.93 308.34,-359.93 308.34,-318.18 377.59,-318.18 377.59,-359.93"/>
<text xml:space="preserve" text-anchor="middle" x="342.97" y="-346.43" font-family="Helvetica,sans-Serif" font-size="10.00" fill="white">lb_common.</text>
<text xml:space="preserve" text-anchor="middle" x="342.97" y="-335.18" font-family="Helvetica,sans-Serif" font-size="10.00" fill="white">logs.</text>
<text xml:space="preserve" text-anchor="middle" x="342.97" y="-323.93" font-family="Helvetica,sans-Serif" font-size="10.00" fill="white">handlers</text>
</g>
<!-- lb_common_logs_handlers&#45;&gt;lb_common_api -->
<g id="edge10" class="edge">
<title>lb_common_logs_handlers&#45;&gt;lb_common_api</title><style>.edge>path:hover{stroke-width:8}</style>
<path fill="none" stroke="black" d="M346.41,-317.73C348.56,-300.28 349.78,-274.7 342.97,-253.66"/>
</g>
<!-- lb_common_logs_handlers&#45;&gt;lb_common_logs_core -->
<g id="edge11" class="edge">
<title>lb_common_logs_handlers&#45;&gt;lb_common_logs_core</title><style>.edge>path:hover{stroke-width:8}</style>
<path fill="none" stroke="black" d="M328.04,-318.05C320.17,-307.51 310.38,-294.39 301.68,-282.75"/>
<polygon fill="blue" stroke="black" points="304.7,-280.94 295.91,-275.02 299.09,-285.13 304.7,-280.94"/>
</g>
<!-- lb_common_logs_handlers_jsonl_handler -->
<g id="node10" class="node">
<title>lb_common_logs_handlers_jsonl_handler</title><style>.edge>path:hover{stroke-width:8}</style>
<polygon fill="blue" stroke="black" points="343.47,-459.9 270.47,-459.9 270.47,-406.9 343.47,-406.9 343.47,-459.9"/>
<text xml:space="preserve" text-anchor="middle" x="306.97" y="-446.4" font-family="Helvetica,sans-Serif" font-size="10.00" fill="white">lb_common.</text>
<text xml:space="preserve" text-anchor="middle" x="306.97" y="-435.15" font-family="Helvetica,sans-Serif" font-size="10.00" fill="white">logs.</text>
<text xml:space="preserve" text-anchor="middle" x="306.97" y="-423.9" font-family="Helvetica,sans-Serif" font-size="10.00" fill="white">handlers.</text>
<text xml:space="preserve" text-anchor="middle" x="306.97" y="-412.65" font-family="Helvetica,sans-Serif" font-size="10.00" fill="white">jsonl_handler</text>
</g>
<!-- lb_common_logs_handlers_jsonl_handler&#45;&gt;lb_common_api -->
<g id="edge12" class="edge">
<title>lb_common_logs_handlers_jsonl_handler&#45;&gt;lb_common_api</title><style>.edge>path:hover{stroke-width:8}</style>
<path fill="none" stroke="black" d="M342.97,-251.66C338.28,-237.16 332.87,-235.49 323.97,-223.13 305.35,-197.29 260.59,-191.84 279.97,-166.57"/>
<path fill="none" stroke="black" d="M279.97,-338.05C281.63,-291.27 357.39,-298.19 342.97,-253.66"/>
</g>
<!-- lb_common_logs_handlers_jsonl_handler&#45;&gt;lb_common_logs_core -->
<g id="edge13" class="edge">
<title>lb_common_logs_handlers_jsonl_handler&#45;&gt;lb_common_logs_core</title><style>.edge>path:hover{stroke-width:8}</style>
<path fill="none" stroke="black" d="M294.69,-406.71C287.17,-388.49 279.14,-363.26 279.97,-340.05"/>
<path fill="none" stroke="black" d="M279.97,-338.05C280.59,-320.55 280.63,-300.99 280.5,-285.11"/>
<polygon fill="blue" stroke="black" points="284,-285.26 280.39,-275.3 277,-285.34 284,-285.26"/>
</g>
<!-- lb_common_logs_handlers_jsonl_handler&#45;&gt;lb_common_logs_handlers -->
<g id="edge14" class="edge">
<title>lb_common_logs_handlers_jsonl_handler&#45;&gt;lb_common_logs_handlers</title><style>.edge>path:hover{stroke-width:8}</style>
<path fill="none" stroke="black" d="M317,-406.68C321.32,-395.6 326.4,-382.54 330.92,-370.94"/>
<polygon fill="blue" stroke="black" points="334.12,-372.38 334.49,-361.79 327.6,-369.83 334.12,-372.38"/>
</g>
<!-- lb_common_logs_handlers_loki_handler -->
<g id="node11" class="node">
<title>lb_common_logs_handlers_loki_handler</title><style>.edge>path:hover{stroke-width:8}</style>
<ellipse fill="#db2f2f" stroke="black" cx="409.97" cy="-433.4" rx="48.97" ry="37.48"/>
<text xml:space="preserve" text-anchor="middle" x="409.97" y="-446.4" font-family="Helvetica,sans-Serif" font-size="10.00" fill="#ffffff">lb_common.</text>
<text xml:space="preserve" text-anchor="middle" x="409.97" y="-435.15" font-family="Helvetica,sans-Serif" font-size="10.00" fill="#ffffff">logs.</text>
<text xml:space="preserve" text-anchor="middle" x="409.97" y="-423.9" font-family="Helvetica,sans-Serif" font-size="10.00" fill="#ffffff">handlers.</text>
<text xml:space="preserve" text-anchor="middle" x="409.97" y="-412.65" font-family="Helvetica,sans-Serif" font-size="10.00" fill="#ffffff">loki_handler</text>
</g>
<!-- lb_common_logs_handlers_loki_handler&#45;&gt;lb_common_api -->
<g id="edge15" class="edge">
<title>lb_common_logs_handlers_loki_handler&#45;&gt;lb_common_api</title><style>.edge>path:hover{stroke-width:8}</style>
<path fill="none" stroke="black" d="M405.97,-338.05C386.19,-295.63 357.39,-298.19 342.97,-253.66"/>
</g>
<!-- lb_common_logs_handlers_loki_handler&#45;&gt;lb_common_logs_core -->
<g id="edge16" class="edge">
<title>lb_common_logs_handlers_loki_handler&#45;&gt;lb_common_logs_core</title><style>.edge>path:hover{stroke-width:8}</style>
<path fill="none" stroke="black" d="M405.97,-338.05C400.8,-326.98 396.51,-325.82 386.97,-318.18 381.18,-313.54 351.06,-295.46 324.24,-279.61"/>
<polygon fill="#db2f2f" stroke="black" points="326.26,-276.74 315.87,-274.67 322.71,-282.76 326.26,-276.74"/>
<path fill="none" stroke="black" d="M414.71,-395.79C415.44,-378.18 413.97,-357.22 405.97,-340.05"/>
</g>
<!-- lb_common_logs_handlers_loki_handler&#45;&gt;lb_common_logs_handlers -->
<g id="edge17" class="edge">
<title>lb_common_logs_handlers_loki_handler&#45;&gt;lb_common_logs_handlers</title><style>.edge>path:hover{stroke-width:8}</style>
<path fill="none" stroke="black" d="M386.53,-400.1C379.35,-390.19 371.47,-379.35 364.42,-369.63"/>
<polygon fill="#db2f2f" stroke="black" points="367.3,-367.63 358.59,-361.59 361.63,-371.74 367.3,-367.63"/>
</g>
<!-- lb_common_logs_schema -->
<g id="node12" class="node">
<title>lb_common_logs_schema</title><style>.edge>path:hover{stroke-width:8}</style>
<ellipse fill="#c04040" stroke="black" cx="306.97" cy="-608.4" rx="48.97" ry="29.52"/>
<text xml:space="preserve" text-anchor="middle" x="306.97" y="-615.78" font-family="Helvetica,sans-Serif" font-size="10.00" fill="#ffffff">lb_common.</text>
<text xml:space="preserve" text-anchor="middle" x="306.97" y="-604.53" font-family="Helvetica,sans-Serif" font-size="10.00" fill="#ffffff">logs.</text>
<text xml:space="preserve" text-anchor="middle" x="306.97" y="-593.28" font-family="Helvetica,sans-Serif" font-size="10.00" fill="#ffffff">schema</text>
</g>
<!-- lb_common_logs_schema&#45;&gt;lb_common_logs_handlers_jsonl_handler -->
<g id="edge18" class="edge">
<title>lb_common_logs_schema&#45;&gt;lb_common_logs_handlers_jsonl_handler</title><style>.edge>path:hover{stroke-width:8}</style>
<path fill="none" stroke="black" d="M306.97,-578.45C306.97,-549.06 306.97,-503.46 306.97,-471.46"/>
<polygon fill="#c04040" stroke="black" points="310.47,-471.85 306.97,-461.85 303.47,-471.85 310.47,-471.85"/>
</g>
<!-- lb_common_models -->
<g id="node13" class="node">
<title>lb_common_models</title><style>.edge>path:hover{stroke-width:8}</style>
<ellipse fill="#c24747" stroke="black" cx="632.97" cy="-165.57" rx="48.97" ry="21.57"/>
<text xml:space="preserve" text-anchor="middle" x="632.97" y="-167.32" font-family="Helvetica,sans-Serif" font-size="10.00" fill="#ffffff">lb_common.</text>
<text xml:space="preserve" text-anchor="middle" x="632.97" y="-156.07" font-family="Helvetica,sans-Serif" font-size="10.00" fill="#ffffff">models</text>
</g>
<!-- lb_common_models&#45;&gt;lb_common_api -->
<g id="edge19" class="edge">
<title>lb_common_models&#45;&gt;lb_common_api</title><style>.edge>path:hover{stroke-width:8}</style>
<path fill="none" stroke="black" d="M605.37,-147.5C589.38,-137.62 569.03,-125.04 551.59,-114.26"/>
<polygon fill="#c24747" stroke="black" points="553.88,-111.56 543.53,-109.28 550.2,-117.51 553.88,-111.56"/>
</g>
<!-- lb_common_models_hosts -->
<g id="node14" class="node">
<title>lb_common_models_hosts</title><style>.edge>path:hover{stroke-width:8}</style>
<ellipse fill="#c24747" stroke="black" cx="593.97" cy="-252.66" rx="48.97" ry="29.52"/>
<text xml:space="preserve" text-anchor="middle" x="593.97" y="-260.03" font-family="Helvetica,sans-Serif" font-size="10.00" fill="#ffffff">lb_common.</text>
<text xml:space="preserve" text-anchor="middle" x="593.97" y="-248.78" font-family="Helvetica,sans-Serif" font-size="10.00" fill="#ffffff">models.</text>
<text xml:space="preserve" text-anchor="middle" x="593.97" y="-237.53" font-family="Helvetica,sans-Serif" font-size="10.00" fill="#ffffff">hosts</text>
</g>
<!-- lb_common_models_hosts&#45;&gt;lb_common_api -->
<g id="edge20" class="edge">
<title>lb_common_models_hosts&#45;&gt;lb_common_api</title><style>.edge>path:hover{stroke-width:8}</style>
<path fill="none" stroke="black" d="M709.97,-164.57C677.68,-118.46 612.72,-101.21 566.44,-94.79"/>
<polygon fill="#c24747" stroke="black" points="566.97,-91.32 556.61,-93.56 566.1,-98.27 566.97,-91.32"/>
<path fill="none" stroke="black" d="M631.65,-233.62C669.87,-214.1 721.82,-183.5 709.97,-166.57"/>
</g>
<!-- lb_common_models_run_info -->
<g id="node15" class="node">
<title>lb_common_models_run_info</title><style>.edge>path:hover{stroke-width:8}</style>
<ellipse fill="#c24747" stroke="black" cx="709.97" cy="-252.66" rx="48.97" ry="29.52"/>
<text xml:space="preserve" text-anchor="middle" x="709.97" y="-260.03" font-family="Helvetica,sans-Serif" font-size="10.00" fill="#ffffff">lb_common.</text>
<text xml:space="preserve" text-anchor="middle" x="709.97" y="-248.78" font-family="Helvetica,sans-Serif" font-size="10.00" fill="#ffffff">models.</text>
<text xml:space="preserve" text-anchor="middle" x="709.97" y="-237.53" font-family="Helvetica,sans-Serif" font-size="10.00" fill="#ffffff">run_info</text>
</g>
<!-- lb_common_models_run_info&#45;&gt;lb_common_api -->
<g id="edge21" class="edge">
<title>lb_common_models_run_info&#45;&gt;lb_common_api</title><style>.edge>path:hover{stroke-width:8}</style>
<path fill="none" stroke="black" d="M717.7,-223.15C720.79,-205.33 721.32,-182.78 709.97,-166.57"/>
</g>
<!-- lb_common_observability -->
<g id="node16" class="node">
<title>lb_common_observability</title><style>.edge>path:hover{stroke-width:8}</style>
<ellipse fill="#c04040" stroke="black" cx="830.97" cy="-165.57" rx="50.03" ry="21.57"/>
<text xml:space="preserve" text-anchor="middle" x="830.97" y="-167.32" font-family="Helvetica,sans-Serif" font-size="10.00" fill="#ffffff">lb_common.</text>
<text xml:space="preserve" text-anchor="middle" x="830.97" y="-156.07" font-family="Helvetica,sans-Serif" font-size="10.00" fill="#ffffff">observability</text>
</g>
<!-- lb_common_observability&#45;&gt;lb_common_api -->
<g id="edge22" class="edge">
<title>lb_common_observability&#45;&gt;lb_common_api</title><style>.edge>path:hover{stroke-width:8}</style>
<path fill="none" stroke="black" d="M787.55,-154.49C729.93,-141.12 628.26,-117.53 566.41,-103.17"/>
<polygon fill="#c04040" stroke="black" points="567.35,-99.8 556.82,-100.95 565.77,-106.62 567.35,-99.8"/>
</g>
<!-- lb_common_observability_grafana_client -->
<g id="node17" class="node">
<title>lb_common_observability_grafana_client</title><style>.edge>path:hover{stroke-width:8}</style>
<ellipse fill="#ce3b3b" stroke="black" cx="830.97" cy="-252.66" rx="54.27" ry="29.52"/>
<text xml:space="preserve" text-anchor="middle" x="830.97" y="-260.03" font-family="Helvetica,sans-Serif" font-size="10.00" fill="#ffffff">lb_common.</text>
<text xml:space="preserve" text-anchor="middle" x="830.97" y="-248.78" font-family="Helvetica,sans-Serif" font-size="10.00" fill="#ffffff">observability.</text>
<text xml:space="preserve" text-anchor="middle" x="830.97" y="-237.53" font-family="Helvetica,sans-Serif" font-size="10.00" fill="#ffffff">grafana_client</text>
</g>
<!-- lb_common_observability_grafana_client&#45;&gt;lb_common_api -->
<g id="edge23" class="edge">
<title>lb_common_observability_grafana_client&#45;&gt;lb_common_api</title><style>.edge>path:hover{stroke-width:8}</style>
<path fill="none" stroke="black" d="M790.5,-232.59C763.87,-218.05 730.3,-195.6 709.97,-166.57"/>
</g>
<!-- lb_common_observability_grafana_client&#45;&gt;lb_common_observability -->
<g id="edge24" class="edge">
<title>lb_common_observability_grafana_client&#45;&gt;lb_common_observability</title><style>.edge>path:hover{stroke-width:8}</style>
<path fill="none" stroke="black" d="M830.97,-222.85C830.97,-215.16 830.97,-206.81 830.97,-198.95"/>
<polygon fill="#ce3b3b" stroke="black" points="834.47,-199.06 830.97,-189.06 827.47,-199.06 834.47,-199.06"/>
</g>
<!-- pydantic -->
<g id="node18" class="node">
<title>pydantic</title><style>.edge>path:hover{stroke-width:8}</style>
<ellipse fill="#40c040" stroke="black" cx="306.97" cy="-765.92" rx="31.21" ry="18"/>
<text xml:space="preserve" text-anchor="middle" x="306.97" y="-762.05" font-family="Helvetica,sans-Serif" font-size="10.00" fill="#000000">pydantic</text>
</g>
<!-- pydantic&#45;&gt;lb_common_logs_schema -->
<g id="edge25" class="edge">
<title>pydantic&#45;&gt;lb_common_logs_schema</title><style>.edge>path:hover{stroke-width:8}</style>
<path fill="none" stroke="black" d="M306.97,-747.69C306.97,-724.16 306.97,-681.29 306.97,-649.5"/>
<polygon fill="#40c040" stroke="black" points="310.47,-649.86 306.97,-639.86 303.47,-649.86 310.47,-649.86"/>
</g>
<!-- structlog -->
<g id="node19" class="node">
<title>structlog</title><style>.edge>path:hover{stroke-width:8}</style>
<ellipse fill="#4040c0" stroke="black" cx="241.97" cy="-524.88" rx="31.66" ry="18"/>
<text xml:space="preserve" text-anchor="middle" x="241.97" y="-521.01" font-family="Helvetica,sans-Serif" font-size="10.00" fill="#ffffff">structlog</text>
</g>
<!-- structlog&#45;&gt;lb_common_logs_core -->
<g id="edge26" class="edge">
<title>structlog&#45;&gt;lb_common_logs_core</title><style>.edge>path:hover{stroke-width:8}</style>
<path fill="none" stroke="black" d="M243.42,-506.46C246.52,-470.91 254.43,-387.51 265.97,-318.18 267.77,-307.33 270.19,-295.56 272.51,-285.07"/>
<polygon fill="#4040c0" stroke="black" points="275.91,-285.9 274.71,-275.38 269.08,-284.35 275.91,-285.9"/>
</g>
</g>
</svg>
