<?xml version="1.0" encoding="UTF-8" standalone="no"?>
<!DOCTYPE svg PUBLIC "-//W3C//DTD SVG 1.1//EN"
 "http://www.w3.org/Graphics/SVG/1.1/DTD/svg11.dtd">
<!-- Generated by graphviz version 14.1.1 (20251213.1925)
 -->
<!-- Title: G Pages: 1 -->
<svg width="778pt" height="787pt"
 viewBox="0.00 0.00 778.00 787.00" xmlns="http://www.w3.org/2000/svg" xmlns:xlink="http://www.w3.org/1999/xlink">
<g id="graph0" class="graph" transform="scale(1 1) rotate(0) translate(4 783.26)">
<title>G</title><style>.edge>path:hover{stroke-width:8}</style>
<polygon fill="white" stroke="none" points="-4,4 -4,-783.26 774.24,-783.26 774.24,4 -4,4"/>
<!-- lb_common -->
<g id="node1" class="node">
<title>lb_common</title><style>.edge>path:hover{stroke-width:8}</style>
<polygon fill="blue" stroke="black" points="435.09,-36 368.84,-36 368.84,0 435.09,0 435.09,-36"/>
<text xml:space="preserve" text-anchor="middle" x="401.97" y="-14.12" font-family="Helvetica,sans-Serif" font-size="10.00" fill="white">lb_common</text>
</g>
<!-- lb_common_api -->
<g id="node2" class="node">
<title>lb_common_api</title><style>.edge>path:hover{stroke-width:8}</style>
<polygon fill="blue" stroke="black" points="442.97,-108 360.97,-108 360.97,-72 442.97,-72 442.97,-108"/>
<text xml:space="preserve" text-anchor="middle" x="401.97" y="-86.12" font-family="Helvetica,sans-Serif" font-size="10.00" fill="white">lb_common.api</text>
</g>
<!-- lb_common_api&#45;&gt;lb_common -->
<g id="edge1" class="edge">
<title>lb_common_api&#45;&gt;lb_common</title><style>.edge>path:hover{stroke-width:8}</style>
<path fill="none" stroke="black" d="M401.97,-71.7C401.97,-64.41 401.97,-55.73 401.97,-47.54"/>
<polygon fill="blue" stroke="black" points="405.47,-47.62 401.97,-37.62 398.47,-47.62 405.47,-47.62"/>
</g>
<!-- lb_common_config -->
<g id="node3" class="node">
<title>lb_common_config</title><style>.edge>path:hover{stroke-width:8}</style>
<ellipse fill="#ce3b3b" stroke="black" cx="48.97" cy="-436.7" rx="48.97" ry="21.57"/>
<text xml:space="preserve" text-anchor="middle" x="48.97" y="-438.45" font-family="Helvetica,sans-Serif" font-size="10.00" fill="#ffffff">lb_common.</text>
<text xml:space="preserve" text-anchor="middle" x="48.97" y="-427.2" font-family="Helvetica,sans-Serif" font-size="10.00" fill="#ffffff">config</text>
</g>
<!-- lb_common_config&#45;&gt;lb_common_api -->
<g id="edge2" class="edge">
<title>lb_common_config&#45;&gt;lb_common_api</title><style>.edge>path:hover{stroke-width:8}</style>
<path fill="none" stroke="black" d="M123.97,-251.66C119.41,-203.43 75.89,-181.16 106.97,-144 137.29,-107.74 273.14,-96.25 349.47,-92.64"/>
<polygon fill="#ce3b3b" stroke="black" points="349.39,-96.15 359.22,-92.21 349.08,-89.15 349.39,-96.15"/>
<path fill="none" stroke="black" d="M53.8,-414.98C59.15,-395.49 69.29,-366.31 85.97,-345.68"/>
<path fill="none" stroke="black" d="M85.97,-343.68C113.27,-309.91 125.05,-297.07 123.97,-253.66"/>
</g>
<!-- lb_common_logs_core -->
<g id="node8" class="node">
<title>lb_common_logs_core</title><style>.edge>path:hover{stroke-width:8}</style>
<polygon fill="blue" stroke="black" points="355.59,-273.53 286.34,-273.53 286.34,-231.78 355.59,-231.78 355.59,-273.53"/>
<text xml:space="preserve" text-anchor="middle" x="320.97" y="-260.03" font-family="Helvetica,sans-Serif" font-size="10.00" fill="white">lb_common.</text>
<text xml:space="preserve" text-anchor="middle" x="320.97" y="-248.78" font-family="Helvetica,sans-Serif" font-size="10.00" fill="white">logs.</text>
<text xml:space="preserve" text-anchor="middle" x="320.97" y="-237.53" font-family="Helvetica,sans-Serif" font-size="10.00" fill="white">core</text>
</g>
<!-- lb_common_config&#45;&gt;lb_common_logs_core -->
<g id="edge3" class="edge">
<title>lb_common_config&#45;&gt;lb_common_logs_core</title><style>.edge>path:hover{stroke-width:8}</style>
<path fill="none" stroke="black" d="M85.97,-343.68C95.75,-331.57 96.41,-325.83 109.97,-318.18 176.08,-280.85 206.85,-311.3 276.97,-282.18 278.98,-281.34 281.01,-280.41 283.03,-279.41"/>
<polygon fill="#ce3b3b" stroke="black" points="284.53,-282.57 291.6,-274.68 281.15,-276.44 284.53,-282.57"/>
</g>
<!-- lb_common_config_env -->
<g id="node4" class="node">
<title>lb_common_config_env</title><style>.edge>path:hover{stroke-width:8}</style>
<ellipse fill="#ce3b3b" stroke="black" cx="164.97" cy="-436.7" rx="48.97" ry="29.52"/>
<text xml:space="preserve" text-anchor="middle" x="164.97" y="-444.07" font-family="Helvetica,sans-Serif" font-size="10.00" fill="#ffffff">lb_common.</text>
<text xml:space="preserve" text-anchor="middle" x="164.97" y="-432.82" font-family="Helvetica,sans-Serif" font-size="10.00" fill="#ffffff">config.</text>
<text xml:space="preserve" text-anchor="middle" x="164.97" y="-421.57" font-family="Helvetica,sans-Serif" font-size="10.00" fill="#ffffff">env</text>
</g>
<!-- lb_common_config_env&#45;&gt;lb_common_api -->
<g id="edge4" class="edge">
<title>lb_common_config_env&#45;&gt;lb_common_api</title><style>.edge>path:hover{stroke-width:8}</style>
<path fill="none" stroke="black" d="M123.97,-343.68C131.92,-304.47 127.73,-293.49 123.97,-253.66"/>
<path fill="none" stroke="black" d="M143.33,-409.99C131.19,-392.54 119.32,-368.57 123.97,-345.68"/>
</g>
<!-- lb_common_config_env&#45;&gt;lb_common_logs_core -->
<g id="edge5" class="edge">
<title>lb_common_config_env&#45;&gt;lb_common_logs_core</title><style>.edge>path:hover{stroke-width:8}</style>
<path fill="none" stroke="black" d="M123.97,-343.68C138.54,-271.85 211.92,-315.93 276.97,-282.18 278.63,-281.31 280.32,-280.4 282,-279.46"/>
<polygon fill="#ce3b3b" stroke="black" points="283.48,-282.65 290.31,-274.56 279.92,-276.63 283.48,-282.65"/>
</g>
<!-- lb_common_discovery -->
<g id="node5" class="node">
<title>lb_common_discovery</title><style>.edge>path:hover{stroke-width:8}</style>
<ellipse fill="#c24747" stroke="black" cx="164.97" cy="-165.57" rx="48.97" ry="21.57"/>
<text xml:space="preserve" text-anchor="middle" x="164.97" y="-167.32" font-family="Helvetica,sans-Serif" font-size="10.00" fill="#ffffff">lb_common.</text>
<text xml:space="preserve" text-anchor="middle" x="164.97" y="-156.07" font-family="Helvetica,sans-Serif" font-size="10.00" fill="#ffffff">discovery</text>
</g>
<!-- lb_common_discovery&#45;&gt;lb_common_api -->
<g id="edge6" class="edge">
<title>lb_common_discovery&#45;&gt;lb_common_api</title><style>.edge>path:hover{stroke-width:8}</style>
<path fill="none" stroke="black" d="M203.58,-151.83C211.63,-149.21 220.07,-146.49 227.97,-144 268.86,-131.1 315.34,-116.97 349.96,-106.55"/>
<polygon fill="#c24747" stroke="black" points="350.74,-109.97 359.31,-103.73 348.73,-103.26 350.74,-109.97"/>
</g>
<!-- lb_common_discovery_entrypoints -->
<g id="node6" class="node">
<title>lb_common_discovery_entrypoints</title><style>.edge>path:hover{stroke-width:8}</style>
<ellipse fill="#c24747" stroke="black" cx="218.97" cy="-252.66" rx="48.97" ry="29.52"/>
<text xml:space="preserve" text-anchor="middle" x="218.97" y="-260.03" font-family="Helvetica,sans-Serif" font-size="10.00" fill="#ffffff">lb_common.</text>
<text xml:space="preserve" text-anchor="middle" x="218.97" y="-248.78" font-family="Helvetica,sans-Serif" font-size="10.00" fill="#ffffff">discovery.</text>
<text xml:space="preserve" text-anchor="middle" x="218.97" y="-237.53" font-family="Helvetica,sans-Serif" font-size="10.00" fill="#ffffff">entrypoints</text>
</g>
<!-- lb_common_discovery_entrypoints&#45;&gt;lb_common_api -->
<g id="edge7" class="edge">
<title>lb_common_discovery_entrypoints&#45;&gt;lb_common_api</title><style>.edge>path:hover{stroke-width:8}</style>
<path fill="none" stroke="black" d="M223.49,-222.92C228.67,-198.92 239.41,-165.29 260.97,-144 284.89,-120.37 320.35,-107.11 349.72,-99.76"/>
<polygon fill="#c24747" stroke="black" points="350.22,-103.24 359.17,-97.57 348.64,-96.42 350.22,-103.24"/>
</g>
<!-- lb_common_logs -->
<g id="node7" class="node">
<title>lb_common_logs</title><style>.edge>path:hover{stroke-width:8}</style>
<ellipse fill="#f31616" stroke="black" cx="321.97" cy="-165.57" rx="51.63" ry="18"/>
<text xml:space="preserve" text-anchor="middle" x="321.97" y="-161.69" font-family="Helvetica,sans-Serif" font-size="10.00" fill="#ffffff">lb_common.logs</text>
</g>
<!-- lb_common_logs&#45;&gt;lb_common_api -->
<g id="edge8" class="edge">
<title>lb_common_logs&#45;&gt;lb_common_api</title><style>.edge>path:hover{stroke-width:8}</style>
<path fill="none" stroke="black" d="M339.72,-148.24C349.99,-138.79 363.13,-126.71 374.69,-116.08"/>
<polygon fill="#f31616" stroke="black" points="377.04,-118.68 382.03,-109.33 372.3,-113.52 377.04,-118.68"/>
</g>
<!-- lb_common_logs_core&#45;&gt;lb_common_api -->
<g id="edge9" class="edge">
<title>lb_common_logs_core&#45;&gt;lb_common_api</title><style>.edge>path:hover{stroke-width:8}</style>
<path fill="none" stroke="black" d="M352.86,-231.6C372.83,-216.63 395.89,-194.05 401.97,-166.57"/>
<path fill="none" stroke="black" d="M401.97,-164.57C405.19,-150 405.47,-133.42 404.82,-119.68"/>
<polygon fill="blue" stroke="black" points="408.34,-119.72 404.17,-109.98 401.35,-120.2 408.34,-119.72"/>
</g>
<!-- lb_common_logs_handlers -->
<g id="node9" class="node">
<title>lb_common_logs_handlers</title><style>.edge>path:hover{stroke-width:8}</style>
<polygon fill="blue" stroke="black" points="395.59,-365.55 326.34,-365.55 326.34,-323.8 395.59,-323.8 395.59,-365.55"/>
<text xml:space="preserve" text-anchor="middle" x="360.97" y="-352.05" font-family="Helvetica,sans-Serif" font-size="10.00" fill="white">lb_common.</text>
<text xml:space="preserve" text-anchor="middle" x="360.97" y="-340.8" font-family="Helvetica,sans-Serif" font-size="10.00" fill="white">logs.</text>
<text xml:space="preserve" text-anchor="middle" x="360.97" y="-329.55" font-family="Helvetica,sans-Serif" font-size="10.00" fill="white">handlers</text>
</g>
<!-- lb_common_logs_handlers&#45;&gt;lb_common_api -->
<g id="edge10" class="edge">
<title>lb_common_logs_handlers&#45;&gt;lb_common_api</title><style>.edge>path:hover{stroke-width:8}</style>
<path fill="none" stroke="black" d="M373.28,-323.47C383.28,-305.78 396.57,-279.02 401.97,-253.66"/>
</g>
<!-- lb_common_logs_handlers&#45;&gt;lb_common_logs_core -->
<g id="edge11" class="edge">
<title>lb_common_logs_handlers&#45;&gt;lb_common_logs_core</title><style>.edge>path:hover{stroke-width:8}</style>
<path fill="none" stroke="black" d="M352.09,-323.7C346.95,-312.12 340.37,-297.31 334.58,-284.29"/>
<polygon fill="blue" stroke="black" points="337.83,-282.99 330.57,-275.27 331.43,-285.83 337.83,-282.99"/>
</g>
<!-- lb_common_logs_handlers_jsonl_handler -->
<g id="node10" class="node">
<title>lb_common_logs_handlers_jsonl_handler</title><style>.edge>path:hover{stroke-width:8}</style>
<polygon fill="blue" stroke="black" points="371.47,-463.2 298.47,-463.2 298.47,-410.2 371.47,-410.2 371.47,-463.2"/>
<text xml:space="preserve" text-anchor="middle" x="334.97" y="-449.7" font-family="Helvetica,sans-Serif" font-size="10.00" fill="white">lb_common.</text>
<text xml:space="preserve" text-anchor="middle" x="334.97" y="-438.45" font-family="Helvetica,sans-Serif" font-size="10.00" fill="white">logs.</text>
<text xml:space="preserve" text-anchor="middle" x="334.97" y="-427.2" font-family="Helvetica,sans-Serif" font-size="10.00" fill="white">handlers.</text>
<text xml:space="preserve" text-anchor="middle" x="334.97" y="-415.95" font-family="Helvetica,sans-Serif" font-size="10.00" fill="white">jsonl_handler</text>
</g>
<!-- lb_common_logs_handlers_jsonl_handler&#45;&gt;lb_common_api -->
<g id="edge12" class="edge">
<title>lb_common_logs_handlers_jsonl_handler&#45;&gt;lb_common_api</title><style>.edge>path:hover{stroke-width:8}</style>
<path fill="none" stroke="black" d="M401.97,-251.66C409.83,-214.67 393.8,-203.49 401.97,-166.57"/>
<path fill="none" stroke="black" d="M297.97,-343.68C304.73,-282.92 389.25,-313.45 401.97,-253.66"/>
</g>
<!-- lb_common_logs_handlers_jsonl_handler&#45;&gt;lb_common_logs_core -->
<g id="edge13" class="edge">
<title>lb_common_logs_handlers_jsonl_handler&#45;&gt;lb_common_logs_core</title><style>.edge>path:hover{stroke-width:8}</style>
<path fill="none" stroke="black" d="M316.52,-409.96C306.03,-392.5 295.42,-368.52 297.97,-345.68"/>
<path fill="none" stroke="black" d="M297.97,-343.68C300.21,-323.56 305.78,-301.53 310.88,-284.3"/>
<polygon fill="blue" stroke="black" points="314.09,-285.77 313.68,-275.18 307.39,-283.71 314.09,-285.77"/>
</g>
<!-- lb_common_logs_handlers_jsonl_handler&#45;&gt;lb_common_logs_handlers -->
<g id="edge14" class="edge">
<title>lb_common_logs_handlers_jsonl_handler&#45;&gt;lb_common_logs_handlers</title><style>.edge>path:hover{stroke-width:8}</style>
<path fill="none" stroke="black" d="M342.35,-410.14C345.36,-399.73 348.86,-387.59 352.02,-376.67"/>
<polygon fill="blue" stroke="black" points="355.31,-377.89 354.72,-367.32 348.58,-375.95 355.31,-377.89"/>
</g>
<!-- lb_common_logs_handlers_loki_handler -->
<g id="node11" class="node">
<title>lb_common_logs_handlers_loki_handler</title><style>.edge>path:hover{stroke-width:8}</style>
<polygon fill="blue" stroke="black" points="458.59,-463.2 389.34,-463.2 389.34,-410.2 458.59,-410.2 458.59,-463.2"/>
<text xml:space="preserve" text-anchor="middle" x="423.97" y="-449.7" font-family="Helvetica,sans-Serif" font-size="10.00" fill="white">lb_common.</text>
<text xml:space="preserve" text-anchor="middle" x="423.97" y="-438.45" font-family="Helvetica,sans-Serif" font-size="10.00" fill="white">logs.</text>
<text xml:space="preserve" text-anchor="middle" x="423.97" y="-427.2" font-family="Helvetica,sans-Serif" font-size="10.00" fill="white">handlers.</text>
<text xml:space="preserve" text-anchor="middle" x="423.97" y="-415.95" font-family="Helvetica,sans-Serif" font-size="10.00" fill="white">loki_handler</text>
</g>
<!-- lb_common_logs_handlers_loki_handler&#45;&gt;lb_common_api -->
<g id="edge15" class="edge">
<title>lb_common_logs_handlers_loki_handler&#45;&gt;lb_common_api</title><style>.edge>path:hover{stroke-width:8}</style>
<path fill="none" stroke="black" d="M423.97,-343.68C411.86,-304.31 393.4,-293.94 401.97,-253.66"/>
</g>
<!-- lb_common_logs_handlers_loki_handler&#45;&gt;lb_common_logs_core -->
<g id="edge16" class="edge">
<title>lb_common_logs_handlers_loki_handler&#45;&gt;lb_common_logs_core</title><style>.edge>path:hover{stroke-width:8}</style>
<path fill="none" stroke="black" d="M423.97,-343.68C415.01,-314.55 389.15,-292 365.59,-276.76"/>
<polygon fill="blue" stroke="black" points="367.67,-273.93 357.32,-271.67 364,-279.89 367.67,-273.93"/>
<path fill="none" stroke="black" d="M427.93,-409.88C429.8,-391.55 430.4,-366.59 423.97,-345.68"/>
</g>
<!-- lb_common_logs_handlers_loki_handler&#45;&gt;lb_common_logs_handlers -->
<g id="edge17" class="edge">
<title>lb_common_logs_handlers_loki_handler&#45;&gt;lb_common_logs_handlers</title><style>.edge>path:hover{stroke-width:8}</style>
<path fill="none" stroke="black" d="M406.08,-410.14C398.41,-399.18 389.4,-386.31 381.46,-374.96"/>
<polygon fill="blue" stroke="black" points="384.56,-373.29 375.96,-367.1 378.83,-377.3 384.56,-373.29"/>
</g>
<!-- lb_common_logs_handlers_loki_helpers -->
<g id="node12" class="node">
<title>lb_common_logs_handlers_loki_helpers</title><style>.edge>path:hover{stroke-width:8}</style>
<polygon fill="blue" stroke="black" points="521.59,-371.18 452.34,-371.18 452.34,-318.18 521.59,-318.18 521.59,-371.18"/>
<text xml:space="preserve" text-anchor="middle" x="486.97" y="-357.68" font-family="Helvetica,sans-Serif" font-size="10.00" fill="white">lb_common.</text>
<text xml:space="preserve" text-anchor="middle" x="486.97" y="-346.43" font-family="Helvetica,sans-Serif" font-size="10.00" fill="white">logs.</text>
<text xml:space="preserve" text-anchor="middle" x="486.97" y="-335.18" font-family="Helvetica,sans-Serif" font-size="10.00" fill="white">handlers.</text>
<text xml:space="preserve" text-anchor="middle" x="486.97" y="-323.93" font-family="Helvetica,sans-Serif" font-size="10.00" fill="white">loki_helpers</text>
</g>
<!-- lb_common_logs_handlers_loki_handler&#45;&gt;lb_common_logs_handlers_loki_helpers -->
<g id="edge18" class="edge">
<title>lb_common_logs_handlers_loki_handler&#45;&gt;lb_common_logs_handlers_loki_helpers</title><style>.edge>path:hover{stroke-width:8}</style>
<path fill="none" stroke="black" d="M448.43,-400.74C452.99,-394.22 457.76,-387.41 462.32,-380.89"/>
<polygon fill="blue" stroke="black" points="445.59,-398.7 442.72,-408.9 451.32,-402.72 445.59,-398.7"/>
<polygon fill="blue" stroke="black" points="465.08,-383.05 467.95,-372.85 459.35,-379.04 465.08,-383.05"/>
</g>
<!-- lb_common_logs_schema -->
<g id="node13" class="node">
<title>lb_common_logs_schema</title><style>.edge>path:hover{stroke-width:8}</style>
<ellipse fill="#c04040" stroke="black" cx="334.97" cy="-603.74" rx="48.97" ry="29.52"/>
<text xml:space="preserve" text-anchor="middle" x="334.97" y="-611.12" font-family="Helvetica,sans-Serif" font-size="10.00" fill="#ffffff">lb_common.</text>
<text xml:space="preserve" text-anchor="middle" x="334.97" y="-599.87" font-family="Helvetica,sans-Serif" font-size="10.00" fill="#ffffff">logs.</text>
<text xml:space="preserve" text-anchor="middle" x="334.97" y="-588.62" font-family="Helvetica,sans-Serif" font-size="10.00" fill="#ffffff">schema</text>
</g>
<!-- lb_common_logs_schema&#45;&gt;lb_common_logs_handlers_jsonl_handler -->
<g id="edge20" class="edge">
<title>lb_common_logs_schema&#45;&gt;lb_common_logs_handlers_jsonl_handler</title><style>.edge>path:hover{stroke-width:8}</style>
<path fill="none" stroke="black" d="M334.97,-573.99C334.97,-546.52 334.97,-504.95 334.97,-474.95"/>
<polygon fill="#c04040" stroke="black" points="338.47,-475.19 334.97,-465.19 331.47,-475.19 338.47,-475.19"/>
</g>
<!-- lb_common_models -->
<g id="node14" class="node">
<title>lb_common_models</title><style>.edge>path:hover{stroke-width:8}</style>
<ellipse fill="#c24747" stroke="black" cx="478.97" cy="-165.57" rx="48.97" ry="21.57"/>
<text xml:space="preserve" text-anchor="middle" x="478.97" y="-167.32" font-family="Helvetica,sans-Serif" font-size="10.00" fill="#ffffff">lb_common.</text>
<text xml:space="preserve" text-anchor="middle" x="478.97" y="-156.07" font-family="Helvetica,sans-Serif" font-size="10.00" fill="#ffffff">models</text>
</g>
<!-- lb_common_models&#45;&gt;lb_common_api -->
<g id="edge21" class="edge">
<title>lb_common_models&#45;&gt;lb_common_api</title><style>.edge>path:hover{stroke-width:8}</style>
<path fill="none" stroke="black" d="M459.14,-145.62C449.74,-136.64 438.38,-125.79 428.27,-116.13"/>
<polygon fill="#c24747" stroke="black" points="430.89,-113.79 421.24,-109.41 426.05,-118.85 430.89,-113.79"/>
</g>
<!-- lb_common_models_hosts -->
<g id="node15" class="node">
<title>lb_common_models_hosts</title><style>.edge>path:hover{stroke-width:8}</style>
<ellipse fill="#c24747" stroke="black" cx="478.97" cy="-252.66" rx="48.97" ry="29.52"/>
<text xml:space="preserve" text-anchor="middle" x="478.97" y="-260.03" font-family="Helvetica,sans-Serif" font-size="10.00" fill="#ffffff">lb_common.</text>
<text xml:space="preserve" text-anchor="middle" x="478.97" y="-248.78" font-family="Helvetica,sans-Serif" font-size="10.00" fill="#ffffff">models.</text>
<text xml:space="preserve" text-anchor="middle" x="478.97" y="-237.53" font-family="Helvetica,sans-Serif" font-size="10.00" fill="#ffffff">hosts</text>
</g>
<!-- lb_common_models_hosts&#45;&gt;lb_common_api -->
<g id="edge22" class="edge">
<title>lb_common_models_hosts&#45;&gt;lb_common_api</title><style>.edge>path:hover{stroke-width:8}</style>
<path fill="none" stroke="black" d="M557.97,-164.57C539.45,-125.39 492.02,-107 454.28,-98.41"/>
<polygon fill="#c24747" stroke="black" points="455.41,-95.07 444.9,-96.45 453.98,-101.92 455.41,-95.07"/>
<path fill="none" stroke="black" d="M516.36,-233.24C542.51,-217.6 570.67,-193.45 557.97,-166.57"/>
</g>
<!-- lb_common_models_run_info -->
<g id="node16" class="node">
<title>lb_common_models_run_info</title><style>.edge>path:hover{stroke-width:8}</style>
<ellipse fill="#c24747" stroke="black" cx="594.97" cy="-252.66" rx="48.97" ry="29.52"/>
<text xml:space="preserve" text-anchor="middle" x="594.97" y="-260.03" font-family="Helvetica,sans-Serif" font-size="10.00" fill="#ffffff">lb_common.</text>
<text xml:space="preserve" text-anchor="middle" x="594.97" y="-248.78" font-family="Helvetica,sans-Serif" font-size="10.00" fill="#ffffff">models.</text>
<text xml:space="preserve" text-anchor="middle" x="594.97" y="-237.53" font-family="Helvetica,sans-Serif" font-size="10.00" fill="#ffffff">run_info</text>
</g>
<!-- lb_common_models_run_info&#45;&gt;lb_common_api -->
<g id="edge23" class="edge">
<title>lb_common_models_run_info&#45;&gt;lb_common_api</title><style>.edge>path:hover{stroke-width:8}</style>
<path fill="none" stroke="black" d="M583.4,-223.87C576.32,-207.15 566.92,-185.5 557.97,-166.57"/>
</g>
<!-- lb_common_observability -->
<g id="node17" class="node">
<title>lb_common_observability</title><style>.edge>path:hover{stroke-width:8}</style>
<ellipse fill="#c04040" stroke="black" cx="637.97" cy="-165.57" rx="50.03" ry="21.57"/>
<text xml:space="preserve" text-anchor="middle" x="637.97" y="-167.32" font-family="Helvetica,sans-Serif" font-size="10.00" fill="#ffffff">lb_common.</text>
<text xml:space="preserve" text-anchor="middle" x="637.97" y="-156.07" font-family="Helvetica,sans-Serif" font-size="10.00" fill="#ffffff">observability</text>
</g>
<!-- lb_common_observability&#45;&gt;lb_common_api -->
<g id="edge24" class="edge">
<title>lb_common_observability&#45;&gt;lb_common_api</title><style>.edge>path:hover{stroke-width:8}</style>
<path fill="none" stroke="black" d="M598.2,-152.17C558.56,-139.81 497.49,-120.78 454.02,-107.22"/>
<polygon fill="#c04040" stroke="black" points="455.12,-103.9 444.53,-104.27 453.04,-110.59 455.12,-103.9"/>
</g>
<!-- lb_common_observability_grafana_client -->
<g id="node18" class="node">
<title>lb_common_observability_grafana_client</title><style>.edge>path:hover{stroke-width:8}</style>
<ellipse fill="#ce3b3b" stroke="black" cx="715.97" cy="-252.66" rx="54.27" ry="29.52"/>
<text xml:space="preserve" text-anchor="middle" x="715.97" y="-260.03" font-family="Helvetica,sans-Serif" font-size="10.00" fill="#ffffff">lb_common.</text>
<text xml:space="preserve" text-anchor="middle" x="715.97" y="-248.78" font-family="Helvetica,sans-Serif" font-size="10.00" fill="#ffffff">observability.</text>
<text xml:space="preserve" text-anchor="middle" x="715.97" y="-237.53" font-family="Helvetica,sans-Serif" font-size="10.00" fill="#ffffff">grafana_client</text>
</g>
<!-- lb_common_observability_grafana_client&#45;&gt;lb_common_api -->
<g id="edge25" class="edge">
<title>lb_common_observability_grafana_client&#45;&gt;lb_common_api</title><style>.edge>path:hover{stroke-width:8}</style>
<path fill="none" stroke="black" d="M719.19,-222.9C720.21,-198.55 717.33,-164.43 696.97,-144 663.73,-110.66 530.08,-97.97 454.58,-93.4"/>
<polygon fill="#ce3b3b" stroke="black" points="455.13,-89.92 444.95,-92.84 454.73,-96.91 455.13,-89.92"/>
</g>
<!-- lb_common_observability_grafana_client&#45;&gt;lb_common_observability -->
<g id="edge26" class="edge">
<title>lb_common_observability_grafana_client&#45;&gt;lb_common_observability</title><style>.edge>path:hover{stroke-width:8}</style>
<path fill="none" stroke="black" d="M692.14,-225.66C683.13,-215.84 672.84,-204.61 663.67,-194.6"/>
<polygon fill="#ce3b3b" stroke="black" points="666.31,-192.31 656.98,-187.3 661.15,-197.04 666.31,-192.31"/>
</g>
<!-- pydantic -->
<g id="node19" class="node">
<title>pydantic</title><style>.edge>path:hover{stroke-width:8}</style>
<ellipse fill="#40c040" stroke="black" cx="334.97" cy="-761.26" rx="31.21" ry="18"/>
<text xml:space="preserve" text-anchor="middle" x="334.97" y="-757.39" font-family="Helvetica,sans-Serif" font-size="10.00" fill="#000000">pydantic</text>
</g>
<!-- pydantic&#45;&gt;lb_common_logs_schema -->
<g id="edge27" class="edge">
<title>pydantic&#45;&gt;lb_common_logs_schema</title><style>.edge>path:hover{stroke-width:8}</style>
<path fill="none" stroke="black" d="M334.97,-743.03C334.97,-719.5 334.97,-676.63 334.97,-644.84"/>
<polygon fill="#40c040" stroke="black" points="338.47,-645.2 334.97,-635.2 331.47,-645.2 338.47,-645.2"/>
</g>
<!-- structlog -->
<g id="node20" class="node">
<title>structlog</title><style>.edge>path:hover{stroke-width:8}</style>
<ellipse fill="#4040c0" stroke="black" cx="259.97" cy="-520.22" rx="31.66" ry="18"/>
<text xml:space="preserve" text-anchor="middle" x="259.97" y="-516.35" font-family="Helvetica,sans-Serif" font-size="10.00" fill="#ffffff">structlog</text>
</g>
<!-- structlog&#45;&gt;lb_common_logs_core -->
<g id="edge28" class="edge">
<title>structlog&#45;&gt;lb_common_logs_core</title><style>.edge>path:hover{stroke-width:8}</style>
<path fill="none" stroke="black" d="M259.74,-501.77C259.76,-466.26 262.37,-383.41 283.97,-318.18 287.93,-306.19 294.27,-293.95 300.58,-283.4"/>
<polygon fill="#4040c0" stroke="black" points="303.41,-285.48 305.75,-275.15 297.47,-281.77 303.41,-285.48"/>
</g>
</g>
</svg>
